<svg width="96" height="96" xmlns="http://www.w3.org/2000/svg" xmlns:xlink="http://www.w3.org/1999/xlink" xml:space="preserve" overflow="hidden"><g transform="translate(-795 -104)"><path d="M879.24 189.29 862.65 162.74C862.166 161.961 861.143 161.722 860.364 162.206 860.147 162.341 859.965 162.523 859.83 162.74L855 170.55 865.4 187.44C866.302 188.786 866.496 190.486 865.92 192L877.71 192C878.351 192.02 878.949 191.681 879.26 191.12 879.584 190.571 879.584 189.889 879.26 189.34Z" stroke="#BFBFBF" fill="#BFBFBF"/><path d="M862.59 189.26 836.12 146.21C835.546 145.426 834.444 145.255 833.66 145.83 833.515 145.936 833.386 146.064 833.28 146.21L806.82 189.26C806.239 189.99 806.359 191.053 807.089 191.635 807.415 191.894 807.825 192.024 808.24 192L861.17 192C862.109 192.021 862.887 191.277 862.908 190.339 862.916 189.97 862.805 189.609 862.59 189.31ZM838.81 162.41 834.7 166.07 830.6 162.41 825.54 165.5 834.7 150.5 843.86 165.5Z" stroke="#BFBFBF" fill="#BFBFBF"/><path d="M816.66 135.8C816.86 134.85 817.266 133.956 817.85 133.18 818.729 132.015 819.96 131.163 821.36 130.75 822.253 128.488 824.194 126.805 826.56 126.24 827.129 126.095 827.713 126.015 828.3 126L828.63 126C828.389 124.559 827.583 123.274 826.39 122.43 824.933 121.407 823.072 121.146 821.39 121.73 819.722 118.482 815.738 117.202 812.49 118.869 810.292 119.998 808.907 122.259 808.9 124.73L808.9 124.73C805.862 124.426 803.154 126.642 802.85 129.68 802.546 132.718 804.762 135.426 807.8 135.73L807.8 135.73Z" stroke="#BFBFBF" fill="#BFBFBF"/><path d="M837.51 135 837.26 135C837.267 132.94 835.603 131.264 833.543 131.257 833.105 131.256 832.671 131.331 832.26 131.48 831.125 129.282 828.422 128.42 826.224 129.556 824.753 130.316 823.821 131.825 823.8 133.48L823.8 133.48C821.723 133.278 819.877 134.798 819.675 136.875 819.473 138.952 820.993 140.798 823.07 141L837.51 141C839.167 141 840.51 139.657 840.51 138 840.51 136.343 839.167 135 837.51 135Z" stroke="#BFBFBF" fill="#BFBFBF"/><path d="M881.72 160 881.53 160C881.532 158.432 880.262 157.158 878.694 157.156 878.369 157.156 878.046 157.211 877.74 157.32 876.887 155.641 874.834 154.972 873.155 155.825 872.012 156.406 871.292 157.578 871.29 158.86L871.29 158.86C870.242 158.702 869.193 159.142 868.57 160 867.624 161.251 867.872 163.032 869.123 163.978 869.585 164.327 870.142 164.526 870.72 164.55L881.72 164.55C882.976 164.633 884.063 163.682 884.146 162.426 884.229 161.169 883.278 160.083 882.022 160 881.921 159.993 881.82 159.993 881.72 160Z" stroke="#BFBFBF" fill="#BFBFBF"/><path d="M861 144 861.39 144 861.75 142.44C862.25 138.94 872 130.3 872 124.44 872 117.33 866.22 112.44 858 112.44 849.78 112.44 844 117.35 844 124.44 844 130.3 853.75 138.94 854.25 142.44L854.61 144 855 144 855 146 855 146 853 146 853 146 853 151.44C853.016 152.318 853.741 153.017 854.619 153.001 854.626 153 854.633 153 854.64 153L861.36 153C862.234 153.028 862.967 152.344 863 151.47L863 146 863 146 861 146 861 146ZM867.5 125.19C867.5 128.26 864.62 133.65 862.5 137.6 861.84 138.86 861.25 140 860.74 141L860.74 141 859.2 141 859.57 139.73C860.77 135.67 863 128.11 863 125.07 863 119 861.55 114.88 859.14 113.92 859.112 113.92 859.09 113.898 859.09 113.87 859.09 113.842 859.112 113.82 859.14 113.82 864.2 114.41 867.5 118.82 867.5 125.19ZM853.5 137.6C851.39 133.6 848.5 128.26 848.5 125.19 848.5 118.82 851.8 114.41 856.83 113.82 856.858 113.82 856.88 113.842 856.88 113.87 856.88 113.898 856.858 113.92 856.83 113.92 854.42 114.92 852.97 118.92 852.97 125.07 852.97 128.07 855.2 135.67 856.41 139.74 856.53 140.18 856.65 140.59 856.77 141L855.29 141 855.29 141C854.74 140 854.16 138.86 853.49 137.6ZM857 144 859 144 859 144 859 146 859 146 857 146 857 146 857 144 857 144Z" stroke="#BFBFBF" fill="#BFBFBF"/></g></svg>