<svg width="96" height="96" xmlns="http://www.w3.org/2000/svg" xmlns:xlink="http://www.w3.org/1999/xlink" xml:space="preserve" overflow="hidden"><g transform="translate(-1123 -104)"><path d="M1207.24 189.29 1190.65 162.74C1190.17 161.961 1189.14 161.722 1188.36 162.206 1188.15 162.341 1187.96 162.523 1187.83 162.74L1183 170.55 1193.4 187.44C1194.3 188.786 1194.5 190.486 1193.92 192L1205.71 192C1206.35 192.02 1206.95 191.681 1207.26 191.12 1207.58 190.571 1207.58 189.889 1207.26 189.34Z" stroke="#FFFFFF" fill="#FFFFFF"/><path d="M1190.59 189.26 1164.12 146.21C1163.55 145.426 1162.44 145.255 1161.66 145.83 1161.51 145.936 1161.39 146.064 1161.28 146.21L1134.82 189.26C1134.24 189.99 1134.36 191.053 1135.09 191.635 1135.41 191.894 1135.82 192.024 1136.24 192L1189.17 192C1190.11 192.021 1190.89 191.277 1190.91 190.339 1190.92 189.97 1190.8 189.609 1190.59 189.31ZM1166.81 162.41 1162.7 166.07 1158.6 162.41 1153.54 165.5 1162.7 150.5 1171.86 165.5Z" stroke="#FFFFFF" fill="#FFFFFF"/><path d="M1144.66 135.8C1144.86 134.85 1145.27 133.956 1145.85 133.18 1146.73 132.015 1147.96 131.163 1149.36 130.75 1150.25 128.488 1152.19 126.805 1154.56 126.24 1155.13 126.095 1155.71 126.015 1156.3 126L1156.63 126C1156.39 124.559 1155.58 123.274 1154.39 122.43 1152.93 121.407 1151.07 121.146 1149.39 121.73 1147.72 118.482 1143.74 117.202 1140.49 118.869 1138.29 119.998 1136.91 122.259 1136.9 124.73L1136.9 124.73C1133.86 124.426 1131.15 126.642 1130.85 129.68 1130.55 132.718 1132.76 135.426 1135.8 135.73L1135.8 135.73Z" stroke="#FFFFFF" fill="#FFFFFF"/><path d="M1165.51 135 1165.26 135C1165.27 132.94 1163.6 131.264 1161.54 131.257 1161.11 131.256 1160.67 131.331 1160.26 131.48 1159.12 129.282 1156.42 128.42 1154.22 129.556 1152.75 130.316 1151.82 131.825 1151.8 133.48L1151.8 133.48C1149.72 133.278 1147.88 134.798 1147.68 136.875 1147.47 138.952 1148.99 140.798 1151.07 141L1165.51 141C1167.17 141 1168.51 139.657 1168.51 138 1168.51 136.343 1167.17 135 1165.51 135Z" stroke="#FFFFFF" fill="#FFFFFF"/><path d="M1209.72 160 1209.53 160C1209.53 158.432 1208.26 157.158 1206.69 157.156 1206.37 157.156 1206.05 157.211 1205.74 157.32 1204.89 155.641 1202.83 154.972 1201.16 155.825 1200.01 156.406 1199.29 157.578 1199.29 158.86L1199.29 158.86C1198.24 158.702 1197.19 159.142 1196.57 160 1195.62 161.251 1195.87 163.032 1197.12 163.978 1197.58 164.327 1198.14 164.526 1198.72 164.55L1209.72 164.55C1210.98 164.633 1212.06 163.682 1212.15 162.426 1212.23 161.169 1211.28 160.083 1210.02 160 1209.92 159.993 1209.82 159.993 1209.72 160Z" stroke="#FFFFFF" fill="#FFFFFF"/><path d="M1189 144 1189.39 144 1189.75 142.44C1190.25 138.94 1200 130.3 1200 124.44 1200 117.33 1194.22 112.44 1186 112.44 1177.78 112.44 1172 117.35 1172 124.44 1172 130.3 1181.75 138.94 1182.25 142.44L1182.61 144 1183 144 1183 146 1183 146 1181 146 1181 146 1181 151.44C1181.02 152.318 1181.74 153.017 1182.62 153.001 1182.63 153 1182.63 153 1182.64 153L1189.36 153C1190.23 153.028 1190.97 152.344 1191 151.47L1191 146 1191 146 1189 146 1189 146ZM1195.5 125.19C1195.5 128.26 1192.62 133.65 1190.5 137.6 1189.84 138.86 1189.25 140 1188.74 141L1188.74 141 1187.2 141 1187.57 139.73C1188.77 135.67 1191 128.11 1191 125.07 1191 119 1189.55 114.88 1187.14 113.92 1187.11 113.92 1187.09 113.898 1187.09 113.87 1187.09 113.842 1187.11 113.82 1187.14 113.82 1192.2 114.41 1195.5 118.82 1195.5 125.19ZM1181.5 137.6C1179.39 133.6 1176.5 128.26 1176.5 125.19 1176.5 118.82 1179.8 114.41 1184.83 113.82 1184.86 113.82 1184.88 113.842 1184.88 113.87 1184.88 113.898 1184.86 113.92 1184.83 113.92 1182.42 114.92 1180.97 118.92 1180.97 125.07 1180.97 128.07 1183.2 135.67 1184.41 139.74 1184.53 140.18 1184.65 140.59 1184.77 141L1183.29 141 1183.29 141C1182.74 140 1182.16 138.86 1181.49 137.6ZM1185 144 1187 144 1187 144 1187 146 1187 146 1185 146 1185 146 1185 144 1185 144Z" stroke="#FFFFFF" fill="#FFFFFF"/></g></svg>