<svg width="96" height="96" xmlns="http://www.w3.org/2000/svg" xmlns:xlink="http://www.w3.org/1999/xlink" xml:space="preserve" overflow="hidden"><g transform="translate(-654 -445)"><path d="M734.886 459.905C734.886 459.905 716.469 455.655 706.553 465.572 703.774 468.35 702.118 472.056 701.903 475.979 693.055 476.175 685.942 483.324 685.79 492.172 681.836 492.368 678.097 494.027 675.298 496.827 665.382 506.743 669.632 525.16 669.632 525.16 669.632 525.16 688.048 529.41 697.965 519.493 700.765 516.695 702.423 512.956 702.619 509.002 711.468 508.85 718.616 501.736 718.813 492.889 722.736 492.674 726.442 491.018 729.22 488.238 739.136 478.322 734.886 459.905 734.886 459.905ZM690.016 512.242C686.618 515.641 681.999 516.765 679.931 514.697 677.863 512.628 678.987 508.01 682.385 504.611 685.784 501.213 690.402 500.089 692.471 502.157 694.539 504.225 693.415 508.844 690.016 512.242ZM706.037 496.222C702.638 499.62 698.02 500.744 695.951 498.676 693.883 496.608 695.007 491.989 698.406 488.591 701.804 485.193 706.422 484.069 708.491 486.137 710.559 488.205 709.435 492.824 706.037 496.222ZM721.969 480.29C718.57 483.689 713.952 484.812 711.884 482.744 709.816 480.676 710.939 476.057 714.338 472.659 717.736 469.261 722.355 468.137 724.423 470.205 726.491 472.273 725.367 476.892 721.969 480.29Z"/></g></svg>