<svg width="96" height="96" xmlns="http://www.w3.org/2000/svg" xmlns:xlink="http://www.w3.org/1999/xlink" xml:space="preserve" overflow="hidden"><g transform="translate(-777 -426)"><path d="M857.886 440.905C857.886 440.905 839.469 436.655 829.553 446.572 826.774 449.35 825.118 453.056 824.903 456.979 816.055 457.175 808.942 464.324 808.79 473.172 804.836 473.368 801.097 475.027 798.298 477.827 788.382 487.743 792.632 506.16 792.632 506.16 792.632 506.16 811.048 510.41 820.965 500.493 823.765 497.695 825.423 493.956 825.619 490.002 834.468 489.85 841.616 482.736 841.813 473.889 845.736 473.674 849.442 472.018 852.22 469.238 862.136 459.322 857.886 440.905 857.886 440.905ZM813.016 493.242C809.618 496.641 804.999 497.765 802.931 495.697 800.863 493.628 801.987 489.01 805.385 485.611 808.784 482.213 813.402 481.089 815.471 483.157 817.539 485.225 816.415 489.844 813.016 493.242ZM829.037 477.222C825.638 480.62 821.02 481.744 818.951 479.676 816.883 477.608 818.007 472.989 821.406 469.591 824.804 466.193 829.422 465.069 831.491 467.137 833.559 469.205 832.435 473.824 829.037 477.222ZM844.969 461.29C841.57 464.689 836.952 465.812 834.884 463.744 832.816 461.676 833.939 457.057 837.338 453.659 840.736 450.261 845.355 449.137 847.423 451.205 849.491 453.273 848.367 457.892 844.969 461.29Z" stroke="#FFFFFF" fill="#FFFFFF"/></g></svg>