<svg width="96" height="96" xmlns="http://www.w3.org/2000/svg" xmlns:xlink="http://www.w3.org/1999/xlink" xml:space="preserve" overflow="hidden"><g transform="translate(-635 -318)"><path d="M675.283 343.355 675.283 343.355C678.367 338.343 680 332.574 680 326.69L652 326.69 652 327.674C652 332.936 653.305 338.116 655.8 342.749L656.352 343.775C658.027 346.884 658.21 350.583 656.852 353.843L655.384 357.367C651.169 367.482 649 378.332 649 389.29L649 400.133C649 402.161 650.519 403.868 652.533 404.105L654.316 404.315C662.079 405.228 669.921 405.228 677.684 404.315L679.467 404.105C681.481 403.868 683 402.161 683 400.133L683 390.805C683 378.869 680.426 367.073 675.452 356.223L674.61 354.385C672.979 350.827 673.232 346.689 675.283 343.355Z"/><path d="M691 379.69 691 395.319C690.998 397.043 692.1 398.574 693.735 399.119L697 400.2 697 403.69 712 403.69 712 400.2 715.265 399.112C716.898 398.568 717.999 397.04 718 395.319L718 379.69Z"/></g></svg>