<svg width="96" height="96" xmlns="http://www.w3.org/2000/svg" xmlns:xlink="http://www.w3.org/1999/xlink" xml:space="preserve" overflow="hidden"><g transform="translate(-777 -320)"><path d="M817.283 345.355 817.283 345.355C820.367 340.343 822 334.574 822 328.69L794 328.69 794 329.674C794 334.936 795.305 340.116 797.8 344.749L798.352 345.775C800.027 348.884 800.21 352.583 798.852 355.843L797.384 359.367C793.169 369.482 791 380.332 791 391.29L791 402.133C791 404.161 792.519 405.868 794.533 406.105L796.316 406.315C804.079 407.228 811.921 407.228 819.684 406.315L821.467 406.105C823.481 405.868 825 404.161 825 402.133L825 392.805C825 380.869 822.426 369.073 817.452 358.223L816.61 356.385C814.979 352.827 815.232 348.689 817.283 345.355Z" stroke="#FFFFFF" fill="#FFFFFF"/><path d="M833 381.69 833 397.319C832.998 399.043 834.1 400.574 835.735 401.119L839 402.2 839 405.69 854 405.69 854 402.2 857.265 401.112C858.898 400.568 859.999 399.04 860 397.319L860 381.69Z" stroke="#FFFFFF" fill="#FFFFFF"/></g></svg>