<svg width="96" height="96" xmlns="http://www.w3.org/2000/svg" xmlns:xlink="http://www.w3.org/1999/xlink" xml:space="preserve" overflow="hidden"><g transform="translate(-652 0)"><path d="M700 10C679 10 662 27 662 48 662 69 679 86 700 86 721 86 738 69 738 48L738 48C738 27 721 10 700 10ZM709.3 25.9C709.7 25.9 719.1 25.6 724.5 34 725.1 34.9 724.8 36.2 723.9 36.8 723 37.4 721.7 37.1 721.1 36.2 718.5 32.3 714.1 29.9 709.4 29.9 708.3 29.9 707.4 29.1 707.3 28 707.2 26.9 708.2 26 709.3 25.9ZM674.7 34.1C678.1 29 683.8 25.9 689.9 26 691 26 691.9 27 691.8 28.1 691.8 29.2 690.8 30.1 689.7 30 685 30 680.6 32.4 678 36.3 677.4 37.2 676.2 37.5 675.2 36.9 674.4 36.2 674.1 35 674.7 34.1L674.7 34.1ZM672.6 58.3C670.7 57.4 669.8 55.1 670.7 53.2 670.7 53.2 670.7 53.2 670.7 53.2 671.5 51.5 676.1 48.6 677.2 47.9 676.3 47.6 675.7 46.6 675.9 45.6 677.1 40.2 682.4 36.8 687.8 37.9 691.7 38.7 694.7 41.7 695.5 45.6 695.8 46.7 695.1 47.8 694 48 692.9 48.3 691.8 47.6 691.6 46.5 691.6 46.5 691.6 46.4 691.6 46.4 690.9 43.2 687.7 41.1 684.5 41.8 682.2 42.3 680.4 44.1 679.9 46.4 679.7 47.5 678.6 48.2 677.6 47.9 677.8 49.1 678.7 54.6 677.9 56.3 676.9 58.3 674.6 59.2 672.6 58.3 672.6 58.3 672.6 58.3 672.6 58.3ZM700 76C690.5 76 681.7 70.6 677.5 62L722.4 62C718.3 70.6 709.5 76 700 76ZM727.4 58.3C725.5 59.2 723.2 58.3 722.3 56.4 722.3 56.4 722.3 56.4 722.3 56.4 721.5 54.7 722.4 49.2 722.6 48 722.6 48 722.5 48 722.5 48 721.6 48 720.7 47.3 720.5 46.4 719.8 43.2 716.6 41.1 713.4 41.8 711.1 42.3 709.3 44.1 708.8 46.4 708.6 47.5 707.5 48.2 706.4 47.9 705.3 47.6 704.6 46.6 704.9 45.5L704.9 45.5C706.1 40.1 711.4 36.7 716.8 37.8 720.7 38.6 723.7 41.6 724.5 45.5 724.7 46.5 724.1 47.6 723 47.8 724.2 48.6 728.6 51.4 729.4 53.1 730.3 55.2 729.4 57.5 727.4 58.3 727.4 58.3 727.4 58.3 727.4 58.3Z"/></g></svg>