<svg width="96" height="96" xmlns="http://www.w3.org/2000/svg" xmlns:xlink="http://www.w3.org/1999/xlink" xml:space="preserve" overflow="hidden"><g transform="translate(-964 -605)"><path d="M1012 615C991 615 974 632 974 653 974 674 991 691 1012 691 1033 691 1050 674 1050 653L1050 653C1050 632 1033 615 1012 615ZM1021.3 630.9C1021.7 630.9 1031.1 630.6 1036.5 639 1037.1 639.9 1036.8 641.2 1035.9 641.8 1035 642.4 1033.7 642.1 1033.1 641.2 1030.5 637.3 1026.1 634.9 1021.4 634.9 1020.3 634.9 1019.4 634.1 1019.3 633 1019.2 631.9 1020.2 631 1021.3 630.9ZM986.7 639.1C990.1 634 995.8 630.9 1001.9 631 1003 631 1003.9 632 1003.8 633.1 1003.8 634.2 1002.8 635.1 1001.7 635 997 635 992.6 637.4 990 641.3 989.4 642.2 988.2 642.5 987.2 641.9 986.4 641.2 986.1 640 986.7 639.1L986.7 639.1ZM984.6 663.3C982.7 662.4 981.8 660.1 982.7 658.2 982.7 658.2 982.7 658.2 982.7 658.2 983.5 656.5 988.1 653.6 989.2 652.9 988.3 652.6 987.7 651.6 987.9 650.6 989.1 645.2 994.4 641.8 999.8 642.9 1003.7 643.7 1006.7 646.7 1007.5 650.6 1007.8 651.7 1007.1 652.8 1006 653 1004.9 653.3 1003.8 652.6 1003.6 651.5 1003.6 651.5 1003.6 651.4 1003.6 651.4 1002.9 648.2 999.7 646.1 996.5 646.8 994.2 647.3 992.4 649.1 991.9 651.4 991.7 652.5 990.6 653.2 989.6 652.9 989.8 654.1 990.7 659.6 989.9 661.3 988.9 663.3 986.6 664.2 984.6 663.3 984.6 663.3 984.6 663.3 984.6 663.3ZM1012 681C1002.5 681 993.7 675.6 989.5 667L1034.4 667C1030.3 675.6 1021.5 681 1012 681ZM1039.4 663.3C1037.5 664.2 1035.2 663.3 1034.3 661.4 1034.3 661.4 1034.3 661.4 1034.3 661.4 1033.5 659.7 1034.4 654.2 1034.6 653 1034.6 653 1034.5 653 1034.5 653 1033.6 653 1032.7 652.3 1032.5 651.4 1031.8 648.2 1028.6 646.1 1025.4 646.8 1023.1 647.3 1021.3 649.1 1020.8 651.4 1020.6 652.5 1019.5 653.2 1018.4 652.9 1017.3 652.6 1016.6 651.6 1016.9 650.5L1016.9 650.5C1018.1 645.1 1023.4 641.7 1028.8 642.8 1032.7 643.6 1035.7 646.6 1036.5 650.5 1036.7 651.5 1036.1 652.6 1035 652.8 1036.2 653.6 1040.6 656.4 1041.4 658.1 1042.3 660.2 1041.4 662.5 1039.4 663.3 1039.4 663.3 1039.4 663.3 1039.4 663.3Z" stroke="#FFFFFF" fill="#FFFFFF"/></g></svg>