<svg width="96" height="96" xmlns="http://www.w3.org/2000/svg" xmlns:xlink="http://www.w3.org/1999/xlink" xml:space="preserve" overflow="hidden"><g transform="translate(-346 -591)"><path d="M366 611.6 366 677C366 678.1 366.9 679 368 679L419 679C420.1 679 421 678.1 421 677L421 610.2C421 609.2 420.3 608.4 419.4 608.2L374.4 599C374.3 599 374.1 599 374 599 372.9 599 372 599.9 372 601L372 609.6 368 609.6C366.9 609.6 366 610.4 366 611.6ZM376 603.4 405.9 609.5 376 609.5 376 607.5 376 603.4ZM417 675 370 675 370 613.6 417 613.6 417 675Z" stroke="#BFBFBF" fill="#BFBFBF"/><path d="M391.2 646.5C391.6 647 393.1 646.2 393.7 646L405 658.4C405.9 659.3 407.3 659.3 408.2 658.4 409.1 657.5 409.1 656.1 408.2 655.2L395.8 643.6 381.6 629.4C381.6 629.4 381.6 629.4 381.6 629.4 381 628.8 380.1 628.8 379.5 629.4 379.5 629.4 377.7 631.3 382.6 636.8L391.2 646.5Z" stroke="#BFBFBF" fill="#BFBFBF"/><path d="M378.7 658.4C379.6 659.3 381 659.3 381.9 658.4L391.5 648.2C391 648.2 390.4 648 390.1 647.6L388.6 645.9 378.7 655.2C377.8 656 377.8 657.5 378.7 658.4Z" stroke="#BFBFBF" fill="#BFBFBF"/><path d="M404 640.6C406.2 638.2 408.2 635.6 410 632.9L409.3 632.2 401.7 639.8 401.7 639.8C401.5 640 401.1 640 400.9 639.8 400.7 639.6 400.7 639.2 400.9 639L408.5 631.4 407.4 630.3 399.8 637.9C399.6 638.1 399.2 638.1 399 637.9 398.8 637.7 398.8 637.3 399 637.1L406.6 629.5 405.5 628.4 398.1 636C397.9 636.2 397.5 636.2 397.3 636 397.1 635.8 397.1 635.4 397.3 635.2L404.9 627.6 404.2 627C401.5 628.8 398.9 630.8 396.5 633.1 394.6 635 393.9 636.9 394.2 638.5 394.3 639 394.3 639.5 394.2 639.9L396.8 642.5 397.1 642.8C397.6 642.7 398 642.8 398.5 642.8 400.2 643.1 402 642.5 404 640.6Z" stroke="#BFBFBF" fill="#BFBFBF"/></g></svg>