<svg width="96" height="96" xmlns="http://www.w3.org/2000/svg" xmlns:xlink="http://www.w3.org/1999/xlink" xml:space="preserve" overflow="hidden"><g transform="translate(-797 -588)"><path d="M817 608.6 817 674C817 675.1 817.9 676 819 676L870 676C871.1 676 872 675.1 872 674L872 607.2C872 606.2 871.3 605.4 870.4 605.2L825.4 596C825.3 596 825.1 596 825 596 823.9 596 823 596.9 823 598L823 606.6 819 606.6C817.9 606.6 817 607.4 817 608.6ZM827 600.4 856.9 606.5 827 606.5 827 604.5 827 600.4ZM868 672 821 672 821 610.6 868 610.6 868 672Z" stroke="#FFFFFF" fill="#FFFFFF"/><path d="M842.2 643.5C842.6 644 844.1 643.2 844.7 643L856 655.4C856.9 656.3 858.3 656.3 859.2 655.4 860.1 654.5 860.1 653.1 859.2 652.2L846.8 640.6 832.6 626.4C832.6 626.4 832.6 626.4 832.6 626.4 832 625.8 831.1 625.8 830.5 626.4 830.5 626.4 828.7 628.3 833.6 633.8L842.2 643.5Z" stroke="#FFFFFF" fill="#FFFFFF"/><path d="M829.7 655.4C830.6 656.3 832 656.3 832.9 655.4L842.5 645.2C842 645.2 841.4 645 841.1 644.6L839.6 642.9 829.7 652.2C828.8 653 828.8 654.5 829.7 655.4Z" stroke="#FFFFFF" fill="#FFFFFF"/><path d="M855 637.6C857.2 635.2 859.2 632.6 861 629.9L860.3 629.2 852.7 636.8 852.7 636.8C852.5 637 852.1 637 851.9 636.8 851.7 636.6 851.7 636.2 851.9 636L859.5 628.4 858.4 627.3 850.8 634.9C850.6 635.1 850.2 635.1 850 634.9 849.8 634.7 849.8 634.3 850 634.1L857.6 626.5 856.5 625.4 849.1 633C848.9 633.2 848.5 633.2 848.3 633 848.1 632.8 848.1 632.4 848.3 632.2L855.9 624.6 855.2 624C852.5 625.8 849.9 627.8 847.5 630.1 845.6 632 844.9 633.9 845.2 635.5 845.3 636 845.3 636.5 845.2 636.9L847.8 639.5 848.1 639.8C848.6 639.7 849 639.8 849.5 639.8 851.2 640.1 853 639.5 855 637.6Z" stroke="#FFFFFF" fill="#FFFFFF"/></g></svg>