<svg width="96" height="96" xmlns="http://www.w3.org/2000/svg" xmlns:xlink="http://www.w3.org/1999/xlink" xml:space="preserve" overflow="hidden"><g transform="translate(-482 -299)"><path d="M546.42 371 513.42 371C509.278 371 505.92 374.358 505.92 378.5 505.92 382.642 509.278 386 513.42 386L546.42 386C550.562 386 553.92 382.642 553.92 378.5 553.92 374.358 550.562 371 546.42 371ZM515.42 381.5C513.763 381.5 512.42 380.157 512.42 378.5 512.42 376.843 513.763 375.5 515.42 375.5 517.077 375.5 518.42 376.843 518.42 378.5 518.42 380.157 517.077 381.5 515.42 381.5ZM529.92 381.5C528.263 381.5 526.92 380.157 526.92 378.5 526.92 376.843 528.263 375.5 529.92 375.5 531.577 375.5 532.92 376.843 532.92 378.5 532.92 380.157 531.577 381.5 529.92 381.5ZM544.42 381.5C542.763 381.5 541.42 380.157 541.42 378.5 541.42 376.843 542.763 375.5 544.42 375.5 546.077 375.5 547.42 376.843 547.42 378.5 547.42 380.157 546.077 381.5 544.42 381.5Z" stroke="#333333" fill="#333333"/><path d="M536.83 327C536.83 327.828 536.158 328.5 535.33 328.5 534.502 328.5 533.83 327.828 533.83 327 533.83 326.172 534.502 325.5 535.33 325.5 536.158 325.5 536.83 326.172 536.83 327Z" stroke="#333333" fill="#333333"/><path d="M538.61 317 532 317 532 312.45C533.913 311.345 534.569 308.899 533.464 306.986 532.359 305.073 529.913 304.417 528 305.522 526.087 306.626 525.431 309.073 526.536 310.986 526.887 311.594 527.392 312.099 528 312.45L528 317 521.39 317C518.968 317.005 517.005 318.968 517 321.39L517 332.61C517.005 335.032 518.968 336.995 521.39 337L538.61 337C541.032 336.995 542.995 335.032 543 332.61L543 321.39C542.995 318.968 541.032 317.005 538.61 317ZM525 330C523.343 330 522 328.657 522 327 522 325.343 523.343 324 525 324 526.657 324 528 325.343 528 327 528 328.657 526.657 330 525 330ZM535 330C533.343 330 532 328.657 532 327 532 325.343 533.343 324 535 324 536.657 324 538 325.343 538 327 538 328.657 536.657 330 535 330Z" stroke="#333333" fill="#333333"/><path d="M526.83 327C526.83 327.828 526.158 328.5 525.33 328.5 524.502 328.5 523.83 327.828 523.83 327 523.83 326.172 524.502 325.5 525.33 325.5 526.158 325.5 526.83 326.172 526.83 327Z" stroke="#333333" fill="#333333"/><path d="M556 357.82 556 349.49C556 347.01 553.99 345 551.51 345L546 345 546 340 514 340 514 346 506.49 346C506.219 346 506 345.781 506 345.51L506 337.22C509.438 336.205 511.401 332.595 510.386 329.158 510.114 328.236 509.641 327.386 509 326.67L506 329.33C506.42 329.786 506.658 330.38 506.67 331 506.663 332.381 505.537 333.494 504.156 333.486 502.776 333.479 501.663 332.354 501.67 330.973 501.673 330.376 501.89 329.801 502.28 329.35L499.28 326.72C496.923 329.428 497.208 333.534 499.915 335.89 500.528 336.424 501.235 336.837 502 337.11L502 345.51C502 347.99 504.01 350 506.49 350L514 350 514 368 546 368 546 349 551.51 349C551.781 349 552 349.219 552 349.49L552 357.82C548.584 358.925 546.711 362.59 547.816 366.005 548.093 366.86 548.544 367.648 549.14 368.32L552.14 365.66C551.726 365.206 551.498 364.614 551.5 364 551.501 362.619 552.621 361.501 554.002 361.502 555.383 361.503 556.501 362.624 556.5 364.004 556.5 364.61 556.279 365.195 555.88 365.65L558.88 368.28C561.246 365.588 560.982 361.487 558.289 359.121 557.623 358.535 556.844 358.093 556 357.82ZM542 354 539.22 354C539.123 354.017 539.031 354.055 538.95 354.11L535.89 357.24 533.56 351.72 529.21 360.72 526.16 349 523.81 354 519 354 519 352 522.54 352 526.7 343.15 529.78 354.93 533.69 346.93 536.57 353.75 537.57 352.75C538.009 352.306 538.596 352.039 539.22 352L542 352Z" stroke="#333333" fill="#333333"/></g></svg>