<svg width="96" height="96" xmlns="http://www.w3.org/2000/svg" xmlns:xlink="http://www.w3.org/1999/xlink" xml:space="preserve" overflow="hidden"><g transform="translate(-1015 -473)"><path d="M1079.42 545 1046.42 545C1042.28 545 1038.92 548.358 1038.92 552.5 1038.92 556.642 1042.28 560 1046.42 560L1079.42 560C1083.56 560 1086.92 556.642 1086.92 552.5 1086.92 548.358 1083.56 545 1079.42 545ZM1048.42 555.5C1046.76 555.5 1045.42 554.157 1045.42 552.5 1045.42 550.843 1046.76 549.5 1048.42 549.5 1050.08 549.5 1051.42 550.843 1051.42 552.5 1051.42 554.157 1050.08 555.5 1048.42 555.5ZM1062.92 555.5C1061.26 555.5 1059.92 554.157 1059.92 552.5 1059.92 550.843 1061.26 549.5 1062.92 549.5 1064.58 549.5 1065.92 550.843 1065.92 552.5 1065.92 554.157 1064.58 555.5 1062.92 555.5ZM1077.42 555.5C1075.76 555.5 1074.42 554.157 1074.42 552.5 1074.42 550.843 1075.76 549.5 1077.42 549.5 1079.08 549.5 1080.42 550.843 1080.42 552.5 1080.42 554.157 1079.08 555.5 1077.42 555.5Z" stroke="#FFFFFF" fill="#FFFFFF"/><path d="M1069.83 501C1069.83 501.828 1069.16 502.5 1068.33 502.5 1067.5 502.5 1066.83 501.828 1066.83 501 1066.83 500.172 1067.5 499.5 1068.33 499.5 1069.16 499.5 1069.83 500.172 1069.83 501Z" stroke="#FFFFFF" fill="#FFFFFF"/><path d="M1071.61 491 1065 491 1065 486.45C1066.91 485.345 1067.57 482.899 1066.46 480.986 1065.36 479.073 1062.91 478.417 1061 479.522 1059.09 480.626 1058.43 483.073 1059.54 484.986 1059.89 485.594 1060.39 486.099 1061 486.45L1061 491 1054.39 491C1051.97 491.005 1050.01 492.968 1050 495.39L1050 506.61C1050.01 509.032 1051.97 510.995 1054.39 511L1071.61 511C1074.03 510.995 1075.99 509.032 1076 506.61L1076 495.39C1075.99 492.968 1074.03 491.005 1071.61 491ZM1058 504C1056.34 504 1055 502.657 1055 501 1055 499.343 1056.34 498 1058 498 1059.66 498 1061 499.343 1061 501 1061 502.657 1059.66 504 1058 504ZM1068 504C1066.34 504 1065 502.657 1065 501 1065 499.343 1066.34 498 1068 498 1069.66 498 1071 499.343 1071 501 1071 502.657 1069.66 504 1068 504Z" stroke="#FFFFFF" fill="#FFFFFF"/><path d="M1059.83 501C1059.83 501.828 1059.16 502.5 1058.33 502.5 1057.5 502.5 1056.83 501.828 1056.83 501 1056.83 500.172 1057.5 499.5 1058.33 499.5 1059.16 499.5 1059.83 500.172 1059.83 501Z" stroke="#FFFFFF" fill="#FFFFFF"/><path d="M1089 531.82 1089 523.49C1089 521.01 1086.99 519 1084.51 519L1079 519 1079 514 1047 514 1047 520 1039.49 520C1039.22 520 1039 519.781 1039 519.51L1039 511.22C1042.44 510.205 1044.4 506.595 1043.39 503.158 1043.11 502.236 1042.64 501.386 1042 500.67L1039 503.33C1039.42 503.786 1039.66 504.38 1039.67 505 1039.66 506.381 1038.54 507.494 1037.16 507.486 1035.78 507.479 1034.66 506.354 1034.67 504.973 1034.67 504.376 1034.89 503.801 1035.28 503.35L1032.28 500.72C1029.92 503.428 1030.21 507.534 1032.92 509.89 1033.53 510.424 1034.23 510.837 1035 511.11L1035 519.51C1035 521.99 1037.01 524 1039.49 524L1047 524 1047 542 1079 542 1079 523 1084.51 523C1084.78 523 1085 523.219 1085 523.49L1085 531.82C1081.58 532.925 1079.71 536.589 1080.82 540.005 1081.09 540.86 1081.54 541.648 1082.14 542.32L1085.14 539.66C1084.73 539.206 1084.5 538.614 1084.5 538 1084.5 536.619 1085.62 535.501 1087 535.502 1088.38 535.503 1089.5 536.623 1089.5 538.004 1089.5 538.61 1089.28 539.195 1088.88 539.65L1091.88 542.28C1094.25 539.588 1093.98 535.487 1091.29 533.121 1090.62 532.535 1089.84 532.093 1089 531.82ZM1075 528 1072.22 528C1072.12 528.017 1072.03 528.055 1071.95 528.11L1068.89 531.24 1066.56 525.72 1062.21 534.72 1059.16 523 1056.81 528 1052 528 1052 526 1055.54 526 1059.7 517.15 1062.78 528.93 1066.69 520.93 1069.57 527.75 1070.57 526.75C1071.01 526.306 1071.6 526.039 1072.22 526L1075 526Z" stroke="#FFFFFF" fill="#FFFFFF"/></g></svg>