<svg width="96" height="96" xmlns="http://www.w3.org/2000/svg" xmlns:xlink="http://www.w3.org/1999/xlink" xml:space="preserve" overflow="hidden"><g transform="translate(-618 -191)"><path d="M652.241 222.927 653.062 223.341 653.879 222.918C655.073 222.3 657.635 220.748 658.379 218.503 660.933 219.454 663.641 219.924 666.366 219.889 666.495 219.889 666.616 219.889 666.729 219.889L668.804 219.856 668.478 217.806C668.266 216.475 667.654 215.239 666.723 214.264 668.69 214.014 670.606 213.456 672.4 212.61L675.89 210.962 672.384 209.348C670.589 208.519 668.677 207.97 666.716 207.719 667.658 206.731 668.259 205.467 668.431 204.112L668.695 202.081 666.645 202.081C663.813 202.031 660.996 202.508 658.338 203.488 657.607 201.24 654.987 199.688 653.761 199.074L652.94 198.66 652.123 199.083C650.929 199.701 648.365 201.254 647.623 203.5 645.034 202.533 642.286 202.063 639.523 202.115L639.281 202.115 637.191 202.134 637.519 204.198C637.731 205.529 638.343 206.764 639.274 207.739 637.308 207.989 635.393 208.546 633.6 209.391L630.111 211.039 633.611 212.653C635.406 213.482 637.318 214.032 639.279 214.283 638.336 215.274 637.736 216.542 637.569 217.9L637.307 219.93 639.354 219.93C642.188 219.98 645.007 219.502 647.667 218.521 648.4 220.764 651.017 222.311 652.241 222.927ZM644.461 212.668 641.54 212.639C639.064 212.606 636.622 212.054 634.373 211.018 636.605 209.963 639.04 209.408 641.508 209.39L644.472 209.39C644.529 209.271 644.598 209.156 644.666 209.041L642 207.525C640.561 206.84 639.551 205.49 639.3 203.916L639.526 203.916C641.419 203.916 645.126 204.124 647.726 205.551L648.679 206.075C648.845 206.018 649.012 205.968 649.179 205.918L649.212 204.702C649.259 202.949 651.64 201.359 652.947 200.682 654.284 201.356 656.718 202.938 656.727 204.666L656.727 205.884C656.904 205.936 657.083 205.984 657.254 206.045L658.193 205.545C660.953 204.068 664.887 203.882 666.641 203.882 666.436 205.462 665.431 206.826 663.982 207.489L661.309 208.973C661.383 209.094 661.457 209.215 661.519 209.339L664.46 209.364C666.936 209.397 669.377 209.949 671.626 210.984 669.397 212.036 666.965 212.591 664.5 212.611L661.58 212.611C661.518 212.739 661.451 212.863 661.38 212.987L664 214.476C665.44 215.161 666.449 216.512 666.7 218.086L666.366 218.086C664.476 218.086 660.814 217.849 658.266 216.45L657.402 215.976C657.216 216.044 657.016 216.107 656.816 216.167L656.785 217.3C656.738 219.053 654.358 220.642 653.051 221.319 651.715 220.646 649.282 219.064 649.273 217.336L649.273 216.193C649.067 216.132 648.867 216.07 648.667 216L647.807 216.461C645.045 217.939 641.107 218.126 639.354 218.126 639.558 216.544 640.564 215.18 642.015 214.519L644.668 213.047C644.594 212.922 644.522 212.8 644.461 212.668Z"/><path d="M653 215.037C656.739 215.037 659.667 213.264 659.667 211 659.667 208.736 656.739 206.963 653 206.963 649.261 206.963 646.333 208.736 646.333 211 646.333 213.264 649.262 215.037 653 215.037ZM653 208.763C655.786 208.763 657.867 209.944 657.867 211 657.867 212.056 655.786 213.237 653 213.237 650.214 213.237 648.133 212.056 648.133 211 648.133 209.944 650.214 208.763 653 208.763Z"/><path d="M644.689 244.131 644.689 225.762C647.17 227.296 650.044 228.073 652.959 228L652.983 228C655.908 228.079 658.793 227.302 661.283 225.764L661.283 235.764C661.942 235.6 662.61 235.471 663.283 235.378L663.283 224.622C668.13 225.522 672.792 224.312 675.344 222.268L675.344 232.184C676.125 232.084 676.812 232.033 677.344 232.014L677.344 219.286C677.512 218.441 677.405 217.565 677.039 216.786 678.483 216.415 679.833 215.745 681 214.817L681 232.225C681.673 232.324 682.341 232.457 683 232.625L683 211.009C683 208.963 681.407 206.475 677.05 205.236 677.654 203.958 677.549 202.458 676.772 201.277 674.9 198.282 668.9 196.133 662.723 197.5 660.607 194.938 656.417 194.005 653.041 194L653.017 194C649.631 194 645.437 194.93 643.312 197.488 637.132 196.12 631.123 198.268 629.25 201.264 628.472 202.442 628.365 203.94 628.965 205.217 624.6 206.453 623 208.942 623 210.991L623 230.8C623.201 234.157 625.548 237 628.807 237.833 629.051 240.498 630.799 242.657 633.661 244.279 636.583 245.939 640.028 246.419 643.292 245.622 645.418 248.171 649.6 249.1 652.979 249.1L653.509 249.1 653.509 247.1 652.979 247.1C649.221 247.1 646.021 245.937 644.689 244.131ZM628.689 219.455 628.689 235.664C626.606 234.914 625.16 233.008 625 230.8L625 214.8C626.164 215.724 627.51 216.392 628.95 216.762 628.554 217.602 628.462 218.554 628.689 219.455ZM642.689 243.697C639.959 244.337 637.088 243.924 634.649 242.541 632.005 241.032 630.694 239.389 630.689 237.115L630.689 236.278 630.689 236.278 630.689 222.3C633.249 224.317 637.877 225.5 642.689 224.614ZM644.138 222.226 643.438 222.409C637.967 223.843 632.454 222.109 630.927 219.663 630.326 218.736 630.49 217.51 631.312 216.772L632.437 215.472 630.748 215.14C627.255 214.451 625 212.824 625 210.991 625 209.158 627.261 207.529 630.758 206.845L632.445 206.515 631.324 205.215C630.505 204.477 630.344 203.252 630.946 202.328 632.476 199.874 638 198.148 643.467 199.583L644.167 199.768 644.56 199.159C645.8 197.238 649.118 196 653.014 196L653.039 196C656.929 196 660.239 197.247 661.47 199.163L661.862 199.774 662.562 199.591C668.032 198.159 673.546 199.891 675.073 202.336 675.674 203.263 675.511 204.49 674.688 205.228L673.563 206.528 675.252 206.86C678.745 207.549 681 209.176 681 211.009 681 212.842 678.739 214.471 675.242 215.155L673.555 215.485 674.676 216.785C675.495 217.523 675.656 218.748 675.054 219.672 673.523 222.125 668 223.849 662.533 222.417L661.833 222.232 661.44 222.841C660.2 224.762 656.882 226 652.986 226L652.961 226C649.071 225.995 645.761 224.753 644.53 222.837Z"/><path d="M702.053 245.237C702.409 244.487 702.524 243.644 702.381 242.826 701.904 241.039 700.649 239.561 698.963 238.8 695.477 237.081 691.505 236.619 687.718 237.492 685.594 234.93 681.4 234 678.021 234 674.642 234 670.434 234.93 668.311 237.488 661.099 235.888 657.063 239.36 655.62 240.993L655.62 240.993 655.613 241 655.6 241.014 655.6 241.014 655.508 241.126 655.508 262.489 696.34 285.109 698.895 284.235C700.297 283.792 701.487 282.848 702.238 281.584L702.29 281.492C702.964 280.126 702.871 279.038 702.942 277.392 703.399 277.362 703.853 277.298 704.3 277.2 706.546 276.48 708.052 274.369 708 272.011L708 251.011C708 248.964 706.406 246.477 702.053 245.237ZM665.616 265.794C665.997 263.566 667.342 261.619 669.292 260.475 671.294 259.568 673.62 259.743 675.463 260.94 680.177 263.581 683.601 269.94 683.728 275.83ZM694.5 281.8 685.753 276.955 685.728 275.784C685.584 269.127 681.705 262.175 676.496 259.224 674.089 257.686 671.067 257.471 668.466 258.651L668.28 258.751C666.029 260.075 664.413 262.256 663.8 264.794L657.514 261.312 657.514 244.257 694.5 263.837ZM682.258 246.038 683.197 245.538C685.957 244.06 689.891 243.875 691.645 243.875 691.44 245.456 690.435 246.819 688.986 247.482L686.313 248.966C686.387 249.087 686.461 249.207 686.523 249.332L689.464 249.357C691.94 249.39 694.381 249.942 696.63 250.976 694.4 252.03 691.967 252.586 689.5 252.605L686.58 252.605C686.518 252.733 686.451 252.857 686.38 252.98L689 254.47C690.443 255.153 691.457 256.503 691.709 258.08L691.709 258.08C690.438 258.093 689.168 258.01 687.909 257.831L680.868 254.174C682.626 253.551 683.744 252.492 683.744 251.321 683.744 249.429 680.921 247.89 677.487 247.89L677.487 247.89C675.704 247.832 673.944 248.311 672.435 249.263L671.997 249.563 664.497 245.669C664.393 245.087 664.326 244.498 664.297 243.907L664.297 243.907C666.107 243.898 670.019 244.055 672.732 245.542L673.685 246.066C673.846 246.009 674.013 245.959 674.18 245.909L674.213 244.693C674.26 242.94 676.641 241.35 677.948 240.673 679.285 241.346 681.719 242.928 681.728 244.656L681.728 245.875C681.908 245.929 682.087 245.979 682.258 246.038ZM679.139 252.584 678.09 252.731 674.075 250.646C675.117 250.111 676.278 249.85 677.448 249.889 680.031 249.889 681.648 250.917 681.748 251.303 681.687 251.548 680.841 252.267 679.139 252.584ZM700.943 279C700.955 279.549 700.809 280.09 700.521 280.558 700 281.439 699.161 282.088 698.177 282.371L696.513 282.938C696.509 282.94 696.503 282.939 696.501 282.934 696.5 282.932 696.5 282.931 696.5 282.929L696.5 264.2 697.426 263.915C698.777 263.527 699.995 262.772 700.943 261.734ZM700.243 255.155 698.558 255.485 699.676 256.785C700.245 257.411 700.44 258.292 700.188 259.1 699.614 260.556 698.364 261.639 696.841 262L695.868 262.3 691.68 260.08 691.73 260.08 694.051 260.056 693.684 257.764C693.486 256.521 692.948 255.357 692.13 254.4 693.985 254.127 695.789 253.582 697.485 252.783L701.363 250.95 697.463 249.158C695.765 248.375 693.964 247.839 692.114 247.565 692.94 246.591 693.465 245.398 693.626 244.131L693.919 241.874 691.645 241.874C688.857 241.829 686.084 242.284 683.457 243.216 682.617 241.006 680.065 239.499 678.851 238.888L677.938 238.428 677.031 238.898C675.848 239.511 673.354 241.022 672.505 243.226 669.922 242.294 667.189 241.847 664.443 241.908L664.29 241.908 662.009 241.92 662.319 244.18C662.328 244.259 662.337 244.396 662.348 244.553L657.448 241.961C659.125 240.254 662.564 238.061 668.469 239.582L669.169 239.763 669.561 239.156C670.8 237.239 674.119 236 678.021 236 681.923 236 685.234 237.242 686.47 239.164L686.87 239.781 687.578 239.588C691.068 238.628 694.789 238.977 698.04 240.569 699.168 241.06 700.033 242.01 700.416 243.179 700.505 243.937 700.238 244.694 699.692 245.228L698.569 246.528 700.257 246.86C703.745 247.548 706 249.177 706 251.011 706 252.845 703.74 254.471 700.243 255.155ZM703.643 275.315C703.413 275.366 703.179 275.4 702.943 275.415L702.943 256.491C704.053 256.119 705.089 255.553 706 254.818L706 272.041C706.035 273.536 705.074 274.872 703.646 275.315Z"/></g></svg>