<svg width="96" height="96" xmlns="http://www.w3.org/2000/svg" xmlns:xlink="http://www.w3.org/1999/xlink" xml:space="preserve" overflow="hidden"><g transform="translate(-771 -204)"><path d="M805.241 235.927 806.062 236.341 806.879 235.918C808.073 235.3 810.635 233.748 811.379 231.503 813.933 232.454 816.641 232.924 819.366 232.889 819.495 232.889 819.616 232.889 819.729 232.889L821.804 232.856 821.478 230.806C821.266 229.475 820.654 228.239 819.723 227.264 821.69 227.014 823.606 226.456 825.4 225.61L828.89 223.962 825.384 222.348C823.589 221.519 821.677 220.97 819.716 220.719 820.658 219.731 821.259 218.467 821.431 217.112L821.695 215.081 819.645 215.081C816.813 215.031 813.996 215.508 811.338 216.488 810.607 214.24 807.987 212.688 806.761 212.074L805.94 211.66 805.123 212.083C803.929 212.701 801.365 214.254 800.623 216.5 798.034 215.533 795.286 215.063 792.523 215.115L792.281 215.115 790.191 215.134 790.519 217.198C790.731 218.529 791.343 219.764 792.274 220.739 790.308 220.989 788.393 221.546 786.6 222.391L783.111 224.039 786.611 225.653C788.406 226.482 790.318 227.032 792.279 227.283 791.336 228.274 790.736 229.542 790.569 230.9L790.307 232.93 792.354 232.93C795.188 232.98 798.007 232.502 800.667 231.521 801.4 233.764 804.017 235.311 805.241 235.927ZM797.461 225.668 794.54 225.639C792.064 225.606 789.622 225.054 787.373 224.018 789.605 222.963 792.04 222.408 794.508 222.39L797.472 222.39C797.529 222.271 797.598 222.156 797.666 222.041L795 220.525C793.561 219.84 792.551 218.49 792.3 216.916L792.526 216.916C794.419 216.916 798.126 217.124 800.726 218.551L801.679 219.075C801.845 219.018 802.012 218.968 802.179 218.918L802.212 217.702C802.259 215.949 804.64 214.359 805.947 213.682 807.284 214.356 809.718 215.938 809.727 217.666L809.727 218.884C809.904 218.936 810.083 218.984 810.254 219.045L811.193 218.545C813.953 217.068 817.887 216.882 819.641 216.882 819.436 218.462 818.431 219.826 816.982 220.489L814.309 221.973C814.383 222.094 814.457 222.215 814.519 222.339L817.46 222.364C819.936 222.397 822.377 222.949 824.626 223.984 822.397 225.036 819.965 225.591 817.5 225.611L814.58 225.611C814.518 225.739 814.451 225.863 814.38 225.987L817 227.476C818.44 228.161 819.449 229.512 819.7 231.086L819.366 231.086C817.476 231.086 813.814 230.849 811.266 229.45L810.402 228.976C810.216 229.044 810.016 229.107 809.816 229.167L809.785 230.3C809.738 232.053 807.358 233.642 806.051 234.319 804.715 233.646 802.282 232.064 802.273 230.336L802.273 229.193C802.067 229.132 801.867 229.07 801.667 229L800.807 229.461C798.045 230.939 794.107 231.126 792.354 231.126 792.558 229.544 793.564 228.18 795.015 227.519L797.668 226.047C797.594 225.922 797.522 225.8 797.461 225.668Z" stroke="#FFFFFF" fill="#FFFFFF"/><path d="M806 228.037C809.739 228.037 812.667 226.264 812.667 224 812.667 221.736 809.739 219.963 806 219.963 802.261 219.963 799.333 221.736 799.333 224 799.333 226.264 802.262 228.037 806 228.037ZM806 221.763C808.786 221.763 810.867 222.944 810.867 224 810.867 225.056 808.786 226.237 806 226.237 803.214 226.237 801.133 225.056 801.133 224 801.133 222.944 803.214 221.763 806 221.763Z" stroke="#FFFFFF" fill="#FFFFFF"/><path d="M797.689 257.131 797.689 238.762C800.17 240.296 803.044 241.073 805.959 241L805.983 241C808.908 241.079 811.793 240.302 814.283 238.764L814.283 248.764C814.942 248.6 815.61 248.471 816.283 248.378L816.283 237.622C821.13 238.522 825.792 237.312 828.344 235.268L828.344 245.184C829.125 245.084 829.812 245.033 830.344 245.014L830.344 232.286C830.512 231.441 830.405 230.565 830.039 229.786 831.483 229.415 832.833 228.745 834 227.817L834 245.225C834.673 245.324 835.341 245.457 836 245.625L836 224.009C836 221.963 834.407 219.475 830.05 218.236 830.654 216.958 830.549 215.458 829.772 214.277 827.9 211.282 821.9 209.133 815.723 210.5 813.607 207.938 809.417 207.005 806.041 207L806.017 207C802.631 207 798.437 207.93 796.312 210.488 790.132 209.12 784.123 211.268 782.25 214.264 781.472 215.442 781.365 216.94 781.965 218.217 777.6 219.453 776 221.942 776 223.991L776 243.8C776.201 247.157 778.548 250 781.807 250.833 782.051 253.498 783.799 255.657 786.661 257.279 789.583 258.939 793.028 259.419 796.292 258.622 798.418 261.171 802.6 262.1 805.979 262.1L806.509 262.1 806.509 260.1 805.979 260.1C802.221 260.1 799.021 258.937 797.689 257.131ZM781.689 232.455 781.689 248.664C779.606 247.914 778.16 246.008 778 243.8L778 227.8C779.164 228.724 780.51 229.392 781.95 229.762 781.554 230.602 781.462 231.554 781.689 232.455ZM795.689 256.697C792.959 257.337 790.088 256.924 787.649 255.541 785.005 254.032 783.694 252.389 783.689 250.115L783.689 249.278 783.689 249.278 783.689 235.3C786.249 237.317 790.877 238.5 795.689 237.614ZM797.138 235.226 796.438 235.409C790.967 236.843 785.454 235.109 783.927 232.663 783.326 231.736 783.49 230.51 784.312 229.772L785.437 228.472 783.748 228.14C780.255 227.451 778 225.824 778 223.991 778 222.158 780.261 220.529 783.758 219.845L785.445 219.515 784.324 218.215C783.505 217.477 783.344 216.252 783.946 215.328 785.476 212.874 791 211.148 796.467 212.583L797.167 212.768 797.56 212.159C798.8 210.238 802.118 209 806.014 209L806.039 209C809.929 209 813.239 210.247 814.47 212.163L814.862 212.774 815.562 212.591C821.032 211.159 826.546 212.891 828.073 215.336 828.674 216.263 828.511 217.49 827.688 218.228L826.563 219.528 828.252 219.86C831.745 220.549 834 222.176 834 224.009 834 225.842 831.739 227.471 828.242 228.155L826.555 228.485 827.676 229.785C828.495 230.523 828.656 231.748 828.054 232.672 826.523 235.125 821 236.849 815.533 235.417L814.833 235.232 814.44 235.841C813.2 237.762 809.882 239 805.986 239L805.961 239C802.071 238.995 798.761 237.753 797.53 235.837Z" stroke="#FFFFFF" fill="#FFFFFF"/><path d="M855.053 258.237C855.409 257.487 855.524 256.644 855.381 255.826 854.904 254.039 853.649 252.561 851.963 251.8 848.477 250.081 844.505 249.619 840.718 250.492 838.594 247.93 834.4 247 831.021 247 827.642 247 823.434 247.93 821.311 250.488 814.099 248.888 810.063 252.36 808.62 253.993L808.62 253.993 808.613 254 808.6 254.014 808.6 254.014 808.508 254.126 808.508 275.489 849.34 298.109 851.895 297.235C853.297 296.792 854.487 295.848 855.238 294.584L855.29 294.492C855.964 293.126 855.871 292.038 855.942 290.392 856.399 290.362 856.853 290.298 857.3 290.2 859.546 289.48 861.052 287.369 861 285.011L861 264.011C861 261.964 859.406 259.477 855.053 258.237ZM818.616 278.794C818.997 276.566 820.342 274.619 822.292 273.475 824.294 272.568 826.62 272.743 828.463 273.94 833.177 276.581 836.601 282.94 836.728 288.83ZM847.5 294.8 838.753 289.955 838.728 288.784C838.584 282.127 834.705 275.175 829.496 272.224 827.089 270.686 824.067 270.471 821.466 271.651L821.28 271.751C819.029 273.075 817.413 275.256 816.8 277.794L810.514 274.312 810.514 257.257 847.5 276.837ZM835.258 259.038 836.197 258.538C838.957 257.06 842.891 256.875 844.645 256.875 844.44 258.456 843.435 259.819 841.986 260.482L839.313 261.966C839.387 262.087 839.461 262.207 839.523 262.332L842.464 262.357C844.94 262.39 847.381 262.942 849.63 263.976 847.4 265.03 844.967 265.586 842.5 265.605L839.58 265.605C839.518 265.733 839.451 265.857 839.38 265.98L842 267.47C843.443 268.153 844.457 269.503 844.709 271.08L844.709 271.08C843.438 271.093 842.168 271.01 840.909 270.831L833.868 267.174C835.626 266.551 836.744 265.492 836.744 264.321 836.744 262.429 833.921 260.89 830.487 260.89L830.487 260.89C828.704 260.832 826.944 261.311 825.435 262.263L824.997 262.563 817.497 258.669C817.393 258.086 817.326 257.498 817.297 256.907L817.297 256.907C819.107 256.898 823.019 257.055 825.732 258.542L826.685 259.066C826.846 259.009 827.013 258.959 827.18 258.909L827.213 257.693C827.26 255.94 829.641 254.35 830.948 253.673 832.285 254.346 834.719 255.928 834.728 257.656L834.728 258.875C834.908 258.929 835.087 258.979 835.258 259.038ZM832.139 265.584 831.09 265.731 827.075 263.646C828.117 263.111 829.278 262.85 830.448 262.889 833.031 262.889 834.648 263.917 834.748 264.303 834.687 264.548 833.841 265.267 832.139 265.584ZM853.943 292C853.955 292.549 853.809 293.09 853.521 293.558 853 294.439 852.161 295.088 851.177 295.371L849.513 295.938C849.509 295.94 849.503 295.939 849.501 295.934 849.5 295.932 849.5 295.931 849.5 295.929L849.5 277.2 850.426 276.915C851.777 276.527 852.995 275.772 853.943 274.734ZM853.243 268.155 851.558 268.485 852.676 269.785C853.245 270.411 853.44 271.292 853.188 272.1 852.614 273.556 851.364 274.639 849.841 275L848.868 275.3 844.68 273.08 844.73 273.08 847.051 273.056 846.684 270.764C846.486 269.521 845.948 268.357 845.13 267.4 846.985 267.127 848.789 266.582 850.485 265.783L854.363 263.95 850.463 262.158C848.765 261.375 846.964 260.839 845.114 260.565 845.94 259.591 846.465 258.398 846.626 257.131L846.919 254.874 844.645 254.874C841.857 254.829 839.084 255.284 836.457 256.216 835.617 254.006 833.065 252.499 831.851 251.888L830.938 251.428 830.031 251.898C828.848 252.511 826.354 254.022 825.505 256.226 822.922 255.294 820.189 254.847 817.443 254.908L817.29 254.908 815.009 254.92 815.319 257.18C815.328 257.259 815.337 257.396 815.348 257.553L810.448 254.961C812.125 253.254 815.564 251.061 821.469 252.582L822.169 252.763 822.561 252.156C823.8 250.239 827.119 249 831.021 249 834.923 249 838.234 250.242 839.47 252.164L839.87 252.781 840.578 252.588C844.068 251.628 847.789 251.977 851.04 253.569 852.168 254.06 853.033 255.01 853.416 256.179 853.505 256.937 853.238 257.694 852.692 258.228L851.569 259.528 853.257 259.86C856.745 260.548 859 262.177 859 264.011 859 265.845 856.74 267.471 853.243 268.155ZM856.643 288.315C856.413 288.366 856.179 288.4 855.943 288.415L855.943 269.491C857.053 269.119 858.089 268.553 859 267.818L859 285.041C859.035 286.536 858.074 287.872 856.646 288.315Z" stroke="#FFFFFF" fill="#FFFFFF"/></g></svg>