<svg width="96" height="96" xmlns="http://www.w3.org/2000/svg" xmlns:xlink="http://www.w3.org/1999/xlink" xml:space="preserve" overflow="hidden"><g transform="translate(-546 -15)"><path d="M556.649 34.4999 555.533 30.7083C555.518 30.7253 555.501 30.7401 555.486 30.7573 551.76 35.2061 551.515 43.2461 554.909 49.4458 555.354 50.2606 555.872 51.0329 556.458 51.7533 556.42 50.3832 556.768 49.0301 557.462 47.8484 555.176 43.5469 554.924 38.149 556.649 34.4999Z"/><path d="M582.219 42.6777 584.76 42.1697C576.396 33.8127 566.805 28.0869 561.055 28.2202L561.944 31.2412C566.638 31.683 574.318 36.4084 581.233 42.9348 581.557 42.8322 581.886 42.7464 582.219 42.6777Z"/><path d="M624.505 76 623.377 76C623.811 78.4421 623.223 80.4221 621.565 81.7241 618.74 83.9445 614.738 82.679 610.535 78.3923L611.52 81.8345C611.539 81.9 611.554 81.9665 611.566 82.0337 611.639 82.4676 611.676 82.9067 611.677 83.3467 613.607 84.844 615.957 85.6985 618.398 85.79 620.215 85.7962 621.982 85.1956 623.419 84.0835 625.882 82.075 627.025 78.8647 626.386 75.7517 625.772 75.9141 625.14 75.9975 624.505 76Z"/><path d="M634.513 30.7456C633.199 29.21 631.303 28.2932 629.284 28.2168 623.508 27.8752 613.744 33.6731 605.249 42.1697L607.6 42.6401C607.992 42.7214 608.378 42.8261 608.757 42.9539 616.215 35.9094 624.572 30.9509 629.146 31.2134 630.333 31.2525 631.448 31.7857 632.224 32.6841 635.151 36.1792 635.256 42.9146 632.456 48.0308 630.575 51.5479 627.042 53.7495 624.174 55.2749 623.297 55.7415 622.418 56.176 621.535 56.5945L623.421 59.019C624.143 58.6674 624.864 58.3061 625.583 57.9233 628.826 56.1987 632.839 53.6762 635.094 49.4585 638.495 43.2461 638.25 35.2061 634.513 30.7456Z"/><path d="M581.483 76.129C576.569 82.1948 571.718 84.2966 568.444 81.7241 565.093 79.0908 566.098 73.6923 571.134 67.2832 571.306 67.0639 571.59 66.7181 571.92 66.3232 571.412 66.0964 570.93 65.8175 570.48 65.4912L569.378 64.6871C569.132 64.9843 568.921 65.2434 568.774 65.4296 559.593 77.1162 564.782 82.6621 566.591 84.0835 568.028 85.1956 569.795 85.7962 571.612 85.79 574.044 85.79 577.193 84.7439 580.872 81.2398Z"/><path d="M624.505 63 623.983 63 611.954 47.5342C610.775 46.0189 609.091 44.9779 607.208 44.6011L601.005 43.3603 601.005 41.374C602.872 40.1545 604.327 38.3989 605.178 36.3378L606.007 36.5597C605.844 35.8028 605.774 35.0286 605.8 34.2546 605.922 33.6186 605.988 32.9731 605.997 32.3255 606.414 29.7316 607.199 27.2841 605.6 23.7078 604.649 22.2661 603.366 21.0732 601.859 20.2292 600.701 19.6063 599.435 19.2095 598.128 19.06 596.39 17.3923 593.494 16.0026 588.86 17.9482L590.308 18.5041C588.141 18.7539 586.162 19.8535 584.806 21.5615L586.833 21.5615C580.033 25.4775 583.859 31.9158 584.398 37.0898L585.016 36.7462C585.885 38.6327 587.267 40.2365 589.005 41.374L589.005 43.3603 582.611 44.6392C580.885 44.9874 579.32 45.8928 578.158 47.2163L573.709 52.3013 566.873 47.2793C566.114 46.7234 565.222 46.3797 564.286 46.2833L558.169 25.4967 560.552 25.8336 558.824 22.7695 560.369 19.609 556.921 20.3054 554.392 17.8596 553.989 21.3541 550.882 23.0029 554.081 24.4664 554.688 27.9312 556.288 26.1904 562.253 46.4573C559.445 47.2822 557.838 50.2269 558.663 53.0345 558.991 54.1524 559.679 55.1308 560.62 55.8184L571.658 63.8755C574.113 65.6739 577.527 65.345 579.593 63.1108L584.005 58.8588 584.005 71.8901 582.615 84.4941C581.916 86.9808 580.953 89.3858 579.744 91.6685L577.582 95.9233C577.554 95.978 577.528 96.0347 577.505 96.0918 577.174 96.9184 577.004 97.8006 577.005 98.6909L577.005 107C577.005 108.105 577.901 109 579.005 109 579.189 109 579.372 108.975 579.548 108.925 582.325 108.135 584.66 106.248 586.015 103.7L588.503 99 592.88 99C594.94 99.0037 596.92 98.2094 598.407 96.7837L607.835 87.7734C609.29 86.3866 609.951 84.3625 609.597 82.3843 609.584 82.3179 609.569 82.2524 609.551 82.1875L606.005 69.7212 606.005 58.7549 616.225 71.6831C617.358 73.1497 619.108 74.006 620.961 74L624.505 74C627.542 74 630.005 71.5376 630.005 68.5 630.005 65.4624 627.542 63 624.505 63ZM576.773 60.2734C576.741 60.3047 576.709 60.3374 576.679 60.3711 575.993 61.1318 574.843 61.2497 574.017 60.644L562.979 52.5879C562.403 52.1665 562.278 51.3582 562.699 50.7825 563.12 50.2067 563.929 50.0815 564.505 50.5029L572.821 56.6118C573.658 57.2266 574.826 57.0985 575.51 56.3168L578.809 52.5466 581.975 55.2602ZM588.005 31.12 590.784 28.0659 589.915 31.8452 598.997 27.0659 600.774 29.7938C601.399 30.7587 601.802 31.8509 601.952 32.991 601.498 36.829 598.018 39.572 594.18 39.1178 590.657 38.7009 588.004 35.7139 588.005 32.1665ZM595.005 43.1665C595.676 43.1641 596.346 43.1001 597.005 42.9753L597.005 44.1802C597.008 45.6091 598.016 46.8387 599.417 47.1216L599.492 47.1367 599.43 47.2184C597.56 49.6623 594.062 50.1272 591.618 48.2567 591.228 47.9579 590.879 47.6088 590.58 47.2184L590.518 47.1372 590.593 47.1221C591.994 46.839 593.002 45.6093 593.005 44.1802L593.005 42.9753C593.664 43.1001 594.334 43.1641 595.005 43.1665ZM596.547 82.4815 594.344 84.8354 595.682 79.5039ZM586.714 93.831 582.48 101.828C582.106 102.534 581.606 103.165 581.005 103.69L581.005 98.6909C581.005 98.3363 581.068 97.9845 581.19 97.6519L582.994 94.126 583.334 93.4336C584.667 90.8996 585.727 88.2313 586.498 85.4736 586.533 85.3568 586.557 85.237 586.57 85.1157L587.819 73.791 592.28 76.6297 590.101 85.3193C589.431 88.3183 588.287 91.1915 586.714 93.831ZM605.071 84.8818 595.643 93.8921C594.9 94.6047 593.91 95.0018 592.88 95L590.666 95 591.096 94.1626 600.245 84.3828C600.727 83.8675 600.902 83.1366 600.706 82.459L599.01 76.6206C599.128 76.5415 599.252 76.4745 599.365 76.3862L602.949 73.5989 605.672 83.1685C605.758 83.8028 605.535 84.4402 605.071 84.8818ZM624.505 70 620.961 70C620.338 70.0009 619.751 69.7107 619.373 69.2153L608.489 55.4475 611.552 53.533 621.426 66.2281C621.805 66.7151 622.388 66.9999 623.005 67L624.505 67C625.333 67 626.005 67.6716 626.005 68.5 626.005 69.3284 625.333 70 624.505 70Z"/></g></svg>