<svg width="96" height="96" xmlns="http://www.w3.org/2000/svg" xmlns:xlink="http://www.w3.org/1999/xlink" xml:space="preserve" overflow="hidden"><g transform="translate(-1050 -608)"><path d="M1060.65 627.5 1059.53 623.708C1059.52 623.725 1059.5 623.74 1059.49 623.757 1055.76 628.206 1055.51 636.246 1058.91 642.446 1059.35 643.261 1059.87 644.033 1060.46 644.753 1060.42 643.383 1060.77 642.03 1061.46 640.848 1059.18 636.547 1058.92 631.149 1060.65 627.5Z" stroke="#FFFFFF" fill="#FFFFFF"/><path d="M1086.22 635.678 1088.76 635.17C1080.4 626.813 1070.81 621.087 1065.06 621.22L1065.94 624.241C1070.64 624.683 1078.32 629.408 1085.23 635.935 1085.56 635.832 1085.89 635.746 1086.22 635.678Z" stroke="#FFFFFF" fill="#FFFFFF"/><path d="M1128.5 669 1127.38 669C1127.81 671.442 1127.22 673.422 1125.57 674.724 1122.74 676.945 1118.74 675.679 1114.54 671.392L1115.52 674.834C1115.54 674.9 1115.55 674.966 1115.57 675.034 1115.64 675.468 1115.68 675.907 1115.68 676.347 1117.61 677.844 1119.96 678.698 1122.4 678.79 1124.21 678.796 1125.98 678.196 1127.42 677.083 1129.88 675.075 1131.03 671.865 1130.39 668.752 1129.77 668.914 1129.14 668.997 1128.5 669Z" stroke="#FFFFFF" fill="#FFFFFF"/><path d="M1138.51 623.746C1137.2 622.21 1135.3 621.293 1133.28 621.217 1127.51 620.875 1117.74 626.673 1109.25 635.17L1111.6 635.64C1111.99 635.721 1112.38 635.826 1112.76 635.954 1120.21 628.909 1128.57 623.951 1133.15 624.213 1134.33 624.253 1135.45 624.786 1136.22 625.684 1139.15 629.179 1139.26 635.915 1136.46 641.031 1134.58 644.548 1131.04 646.75 1128.17 648.275 1127.3 648.742 1126.42 649.176 1125.53 649.594L1127.42 652.019C1128.14 651.667 1128.86 651.306 1129.58 650.923 1132.83 649.199 1136.84 646.676 1139.09 642.458 1142.5 636.246 1142.25 628.206 1138.51 623.746Z" stroke="#FFFFFF" fill="#FFFFFF"/><path d="M1085.48 669.129C1080.57 675.195 1075.72 677.297 1072.44 674.724 1069.09 672.091 1070.1 666.692 1075.13 660.283 1075.31 660.064 1075.59 659.718 1075.92 659.323 1075.41 659.096 1074.93 658.818 1074.48 658.491L1073.38 657.687C1073.13 657.984 1072.92 658.243 1072.77 658.43 1063.59 670.116 1068.78 675.662 1070.59 677.083 1072.03 678.196 1073.79 678.796 1075.61 678.79 1078.04 678.79 1081.19 677.744 1084.87 674.24Z" stroke="#FFFFFF" fill="#FFFFFF"/><path d="M1128.5 656 1127.98 656 1115.95 640.534C1114.78 639.019 1113.09 637.978 1111.21 637.601L1105 636.36 1105 634.374C1106.87 633.154 1108.33 631.399 1109.18 629.338L1110.01 629.56C1109.84 628.803 1109.77 628.029 1109.8 627.255 1109.92 626.619 1109.99 625.973 1110 625.326 1110.41 622.732 1111.2 620.284 1109.6 616.708 1108.65 615.266 1107.37 614.073 1105.86 613.229 1104.7 612.606 1103.43 612.209 1102.13 612.06 1100.39 610.392 1097.49 609.003 1092.86 610.948L1094.31 611.504C1092.14 611.754 1090.16 612.854 1088.81 614.562L1090.83 614.562C1084.03 618.477 1087.86 624.916 1088.4 630.09L1089.02 629.746C1089.89 631.633 1091.27 633.237 1093 634.374L1093 636.36 1086.61 637.639C1084.88 637.987 1083.32 638.893 1082.16 640.216L1077.71 645.301 1070.87 640.279C1070.11 639.723 1069.22 639.38 1068.29 639.283L1062.17 618.497 1064.55 618.834 1062.82 615.77 1064.37 612.609 1060.92 613.305 1058.39 610.86 1057.99 614.354 1054.88 616.003 1058.08 617.466 1058.69 620.931 1060.29 619.19 1066.25 639.457C1063.44 640.282 1061.84 643.227 1062.66 646.034 1062.99 647.152 1063.68 648.131 1064.62 648.818L1075.66 656.875C1078.11 658.674 1081.53 658.345 1083.59 656.111L1088.01 651.859 1088.01 664.89 1086.61 677.494C1085.92 679.981 1084.95 682.386 1083.74 684.669L1081.58 688.923C1081.55 688.978 1081.53 689.035 1081.51 689.092 1081.17 689.918 1081 690.801 1081.01 691.691L1081.01 700C1081.01 701.105 1081.9 702 1083.01 702 1083.19 702 1083.37 701.975 1083.55 701.925 1086.32 701.135 1088.66 699.248 1090.02 696.7L1092.5 692 1096.88 692C1098.94 692.004 1100.92 691.209 1102.41 689.784L1111.83 680.773C1113.29 679.387 1113.95 677.362 1113.6 675.384 1113.58 675.318 1113.57 675.252 1113.55 675.188L1110 662.721 1110 651.755 1120.22 664.683C1121.36 666.15 1123.11 667.006 1124.96 667L1128.5 667C1131.54 667 1134 664.538 1134 661.5 1134 658.462 1131.54 656 1128.5 656ZM1080.77 653.273C1080.74 653.305 1080.71 653.337 1080.68 653.371 1079.99 654.132 1078.84 654.25 1078.02 653.644L1066.98 645.588C1066.4 645.167 1066.28 644.358 1066.7 643.782 1067.12 643.207 1067.93 643.081 1068.5 643.503L1076.82 649.612C1077.66 650.227 1078.83 650.099 1079.51 649.317L1082.81 645.547 1085.98 648.26ZM1092 624.12 1094.78 621.066 1093.91 624.845 1103 620.066 1104.77 622.794C1105.4 623.759 1105.8 624.851 1105.95 625.991 1105.5 629.829 1102.02 632.572 1098.18 632.118 1094.66 631.701 1092 628.714 1092.01 625.167ZM1099 636.167C1099.68 636.164 1100.35 636.1 1101 635.975L1101 637.18C1101.01 638.609 1102.02 639.839 1103.42 640.122L1103.49 640.137 1103.43 640.218C1101.56 642.662 1098.06 643.127 1095.62 641.257 1095.23 640.958 1094.88 640.609 1094.58 640.218L1094.52 640.137 1094.59 640.122C1095.99 639.839 1097 638.609 1097 637.18L1097 635.975C1097.66 636.1 1098.33 636.164 1099 636.167ZM1100.55 675.482 1098.34 677.835 1099.68 672.504ZM1090.71 686.831 1086.48 694.828C1086.11 695.534 1085.61 696.165 1085 696.69L1085 691.691C1085 691.336 1085.07 690.984 1085.19 690.652L1086.99 687.126 1087.33 686.434C1088.67 683.9 1089.73 681.231 1090.5 678.474 1090.53 678.357 1090.56 678.237 1090.57 678.116L1091.82 666.791 1096.28 669.63 1094.1 678.319C1093.43 681.318 1092.29 684.192 1090.71 686.831ZM1109.07 677.882 1099.64 686.892C1098.9 687.605 1097.91 688.002 1096.88 688L1094.67 688 1095.1 687.163 1104.25 677.383C1104.73 676.867 1104.9 676.137 1104.71 675.459L1103.01 669.621C1103.13 669.542 1103.25 669.474 1103.37 669.386L1106.95 666.599 1109.67 676.169C1109.76 676.803 1109.53 677.44 1109.07 677.882ZM1128.5 663 1124.96 663C1124.34 663.001 1123.75 662.711 1123.37 662.215L1112.49 648.448 1115.55 646.533 1125.43 659.228C1125.81 659.715 1126.39 660 1127 660L1128.5 660C1129.33 660 1130 660.672 1130 661.5 1130 662.328 1129.33 663 1128.5 663Z" stroke="#FFFFFF" fill="#FFFFFF"/></g></svg>