<svg width="96" height="96" xmlns="http://www.w3.org/2000/svg" xmlns:xlink="http://www.w3.org/1999/xlink" xml:space="preserve" overflow="hidden"><g transform="translate(-695 -108)"><path d="M705.649 127.5 704.533 123.708C704.518 123.725 704.501 123.74 704.486 123.757 700.76 128.206 700.515 136.246 703.909 142.446 704.354 143.261 704.872 144.033 705.458 144.753 705.42 143.383 705.768 142.03 706.462 140.848 704.176 136.547 703.924 131.149 705.649 127.5Z" stroke="#BFBFBF" fill="#BFBFBF"/><path d="M731.219 135.678 733.76 135.17C725.396 126.813 715.805 121.087 710.055 121.22L710.944 124.241C715.638 124.683 723.318 129.408 730.233 135.935 730.557 135.832 730.886 135.746 731.219 135.678Z" stroke="#BFBFBF" fill="#BFBFBF"/><path d="M773.505 169 772.377 169C772.811 171.442 772.223 173.422 770.565 174.724 767.74 176.945 763.738 175.679 759.535 171.392L760.52 174.835C760.539 174.9 760.554 174.966 760.566 175.034 760.639 175.468 760.676 175.907 760.677 176.347 762.607 177.844 764.957 178.699 767.398 178.79 769.215 178.796 770.982 178.196 772.419 177.083 774.882 175.075 776.025 171.865 775.386 168.752 774.772 168.914 774.14 168.997 773.505 169Z" stroke="#BFBFBF" fill="#BFBFBF"/><path d="M783.513 123.746C782.199 122.21 780.303 121.293 778.284 121.217 772.508 120.875 762.744 126.673 754.249 135.17L756.6 135.64C756.992 135.721 757.378 135.826 757.757 135.954 765.215 128.909 773.572 123.951 778.146 124.213 779.333 124.253 780.448 124.786 781.224 125.684 784.151 129.179 784.256 135.915 781.456 141.031 779.575 144.548 776.042 146.749 773.174 148.275 772.297 148.742 771.418 149.176 770.535 149.594L772.421 152.019C773.143 151.667 773.864 151.306 774.583 150.923 777.826 149.199 781.839 146.676 784.094 142.458 787.495 136.246 787.25 128.206 783.513 123.746Z" stroke="#BFBFBF" fill="#BFBFBF"/><path d="M730.483 169.129C725.569 175.195 720.718 177.297 717.444 174.724 714.093 172.091 715.098 166.692 720.134 160.283 720.306 160.064 720.59 159.718 720.92 159.323 720.412 159.096 719.93 158.818 719.48 158.491L718.378 157.687C718.132 157.984 717.921 158.243 717.774 158.43 708.593 170.116 713.782 175.662 715.591 177.083 717.028 178.196 718.795 178.796 720.612 178.79 723.044 178.79 726.193 177.744 729.872 174.24Z" stroke="#BFBFBF" fill="#BFBFBF"/><path d="M773.505 156 772.983 156 760.954 140.534C759.775 139.019 758.091 137.978 756.208 137.601L750.005 136.36 750.005 134.374C751.872 133.154 753.327 131.399 754.178 129.338L755.007 129.56C754.844 128.803 754.774 128.029 754.8 127.255 754.922 126.619 754.988 125.973 754.997 125.326 755.414 122.732 756.199 120.284 754.6 116.708 753.649 115.266 752.366 114.073 750.859 113.229 749.701 112.606 748.435 112.21 747.128 112.06 745.39 110.392 742.494 109.003 737.86 110.948L739.308 111.504C737.141 111.754 735.162 112.854 733.806 114.562L735.833 114.562C729.033 118.478 732.859 124.916 733.398 130.09L734.016 129.746C734.885 131.633 736.267 133.236 738.005 134.374L738.005 136.36 731.611 137.639C729.885 137.987 728.32 138.893 727.158 140.216L722.709 145.301 715.873 140.279C715.114 139.723 714.222 139.38 713.286 139.283L707.169 118.497 709.552 118.834 707.824 115.77 709.369 112.609 705.921 113.305 703.392 110.86 702.989 114.354 699.882 116.003 703.081 117.466 703.688 120.931 705.288 119.19 711.253 139.457C708.445 140.282 706.838 143.227 707.663 146.035 707.991 147.152 708.679 148.131 709.62 148.818L720.658 156.876C723.113 158.674 726.527 158.345 728.593 156.111L733.005 151.859 733.005 164.89 731.615 177.494C730.916 179.981 729.953 182.386 728.744 184.669L726.582 188.923C726.554 188.978 726.528 189.035 726.505 189.092 726.174 189.918 726.004 190.801 726.005 191.691L726.005 200C726.005 201.105 726.901 202 728.005 202 728.189 202 728.372 201.975 728.548 201.925 731.325 201.135 733.66 199.248 735.015 196.7L737.503 192 741.88 192C743.94 192.004 745.92 191.209 747.407 189.784L756.835 180.773C758.29 179.387 758.951 177.363 758.597 175.384 758.584 175.318 758.569 175.252 758.551 175.188L755.005 162.721 755.005 151.755 765.225 164.683C766.358 166.15 768.108 167.006 769.961 167L773.505 167C776.542 167 779.005 164.538 779.005 161.5 779.005 158.462 776.542 156 773.505 156ZM725.773 153.273C725.741 153.305 725.709 153.337 725.679 153.371 724.993 154.132 723.843 154.25 723.017 153.644L711.979 145.588C711.403 145.167 711.278 144.358 711.699 143.783 712.12 143.207 712.929 143.081 713.505 143.503L721.821 149.612C722.658 150.227 723.826 150.098 724.51 149.317L727.809 145.547 730.975 148.26ZM737.005 124.12 739.784 121.066 738.915 124.845 747.997 120.066 749.774 122.794C750.399 123.759 750.802 124.851 750.952 125.991 750.498 129.829 747.018 132.572 743.18 132.118 739.657 131.701 737.004 128.714 737.005 125.167ZM744.005 136.167C744.676 136.164 745.346 136.1 746.005 135.975L746.005 137.18C746.008 138.609 747.016 139.839 748.417 140.122L748.492 140.137 748.43 140.218C746.56 142.662 743.062 143.127 740.618 141.257 740.228 140.958 739.879 140.609 739.58 140.218L739.518 140.137 739.593 140.122C740.994 139.839 742.002 138.609 742.005 137.18L742.005 135.975C742.664 136.1 743.334 136.164 744.005 136.167ZM745.547 175.482 743.344 177.835 744.682 172.504ZM735.714 186.831 731.48 194.828C731.106 195.534 730.606 196.165 730.005 196.69L730.005 191.691C730.005 191.336 730.068 190.984 730.19 190.652L731.994 187.126 732.334 186.434C733.667 183.9 734.727 181.231 735.498 178.474 735.533 178.357 735.557 178.237 735.57 178.116L736.819 166.791 741.28 169.63 739.101 178.319C738.431 181.318 737.287 184.191 735.714 186.831ZM754.071 177.882 744.643 186.892C743.9 187.605 742.91 188.002 741.88 188L739.666 188 740.096 187.163 749.245 177.383C749.727 176.867 749.902 176.137 749.706 175.459L748.01 169.621C748.128 169.542 748.252 169.475 748.365 169.386L751.949 166.599 754.672 176.169C754.758 176.803 754.535 177.44 754.071 177.882ZM773.505 163 769.961 163C769.338 163.001 768.751 162.711 768.373 162.215L757.489 148.447 760.552 146.533 770.426 159.228C770.805 159.715 771.388 160 772.005 160L773.505 160C774.333 160 775.005 160.672 775.005 161.5 775.005 162.328 774.333 163 773.505 163Z" stroke="#BFBFBF" fill="#BFBFBF"/></g></svg>