<svg width="96" height="96" xmlns="http://www.w3.org/2000/svg" xmlns:xlink="http://www.w3.org/1999/xlink" xml:space="preserve" overflow="hidden"><g transform="translate(-1023 -108)"><path d="M1033.65 127.5 1032.53 123.708C1032.52 123.725 1032.5 123.74 1032.49 123.757 1028.76 128.206 1028.51 136.246 1031.91 142.446 1032.35 143.261 1032.87 144.033 1033.46 144.753 1033.42 143.383 1033.77 142.03 1034.46 140.848 1032.18 136.547 1031.92 131.149 1033.65 127.5Z" stroke="#FFFFFF" fill="#FFFFFF"/><path d="M1059.22 135.678 1061.76 135.17C1053.4 126.813 1043.81 121.087 1038.06 121.22L1038.94 124.241C1043.64 124.683 1051.32 129.408 1058.23 135.935 1058.56 135.832 1058.89 135.746 1059.22 135.678Z" stroke="#FFFFFF" fill="#FFFFFF"/><path d="M1101.5 169 1100.38 169C1100.81 171.442 1100.22 173.422 1098.57 174.724 1095.74 176.945 1091.74 175.679 1087.54 171.392L1088.52 174.835C1088.54 174.9 1088.55 174.966 1088.57 175.034 1088.64 175.468 1088.68 175.907 1088.68 176.347 1090.61 177.844 1092.96 178.699 1095.4 178.79 1097.21 178.796 1098.98 178.196 1100.42 177.083 1102.88 175.075 1104.03 171.865 1103.39 168.752 1102.77 168.914 1102.14 168.997 1101.5 169Z" stroke="#FFFFFF" fill="#FFFFFF"/><path d="M1111.51 123.746C1110.2 122.21 1108.3 121.293 1106.28 121.217 1100.51 120.875 1090.74 126.673 1082.25 135.17L1084.6 135.64C1084.99 135.721 1085.38 135.826 1085.76 135.954 1093.21 128.909 1101.57 123.951 1106.15 124.213 1107.33 124.253 1108.45 124.786 1109.22 125.684 1112.15 129.179 1112.26 135.915 1109.46 141.031 1107.58 144.548 1104.04 146.749 1101.17 148.275 1100.3 148.742 1099.42 149.176 1098.53 149.594L1100.42 152.019C1101.14 151.667 1101.86 151.306 1102.58 150.923 1105.83 149.199 1109.84 146.676 1112.09 142.458 1115.5 136.246 1115.25 128.206 1111.51 123.746Z" stroke="#FFFFFF" fill="#FFFFFF"/><path d="M1058.48 169.129C1053.57 175.195 1048.72 177.297 1045.44 174.724 1042.09 172.091 1043.1 166.692 1048.13 160.283 1048.31 160.064 1048.59 159.718 1048.92 159.323 1048.41 159.096 1047.93 158.818 1047.48 158.491L1046.38 157.687C1046.13 157.984 1045.92 158.243 1045.77 158.43 1036.59 170.116 1041.78 175.662 1043.59 177.083 1045.03 178.196 1046.79 178.796 1048.61 178.79 1051.04 178.79 1054.19 177.744 1057.87 174.24Z" stroke="#FFFFFF" fill="#FFFFFF"/><path d="M1101.5 156 1100.98 156 1088.95 140.534C1087.78 139.019 1086.09 137.978 1084.21 137.601L1078 136.36 1078 134.374C1079.87 133.154 1081.33 131.399 1082.18 129.338L1083.01 129.56C1082.84 128.803 1082.77 128.029 1082.8 127.255 1082.92 126.619 1082.99 125.973 1083 125.326 1083.41 122.732 1084.2 120.284 1082.6 116.708 1081.65 115.266 1080.37 114.073 1078.86 113.229 1077.7 112.606 1076.43 112.21 1075.13 112.06 1073.39 110.392 1070.49 109.003 1065.86 110.948L1067.31 111.504C1065.14 111.754 1063.16 112.854 1061.81 114.562L1063.83 114.562C1057.03 118.478 1060.86 124.916 1061.4 130.09L1062.02 129.746C1062.89 131.633 1064.27 133.236 1066 134.374L1066 136.36 1059.61 137.639C1057.88 137.987 1056.32 138.893 1055.16 140.216L1050.71 145.301 1043.87 140.279C1043.11 139.723 1042.22 139.38 1041.29 139.283L1035.17 118.497 1037.55 118.834 1035.82 115.77 1037.37 112.609 1033.92 113.305 1031.39 110.86 1030.99 114.354 1027.88 116.003 1031.08 117.466 1031.69 120.931 1033.29 119.19 1039.25 139.457C1036.44 140.282 1034.84 143.227 1035.66 146.035 1035.99 147.152 1036.68 148.131 1037.62 148.818L1048.66 156.876C1051.11 158.674 1054.53 158.345 1056.59 156.111L1061.01 151.859 1061.01 164.89 1059.61 177.494C1058.92 179.981 1057.95 182.386 1056.74 184.669L1054.58 188.923C1054.55 188.978 1054.53 189.035 1054.51 189.092 1054.17 189.918 1054 190.801 1054.01 191.691L1054.01 200C1054.01 201.105 1054.9 202 1056.01 202 1056.19 202 1056.37 201.975 1056.55 201.925 1059.32 201.135 1061.66 199.248 1063.02 196.7L1065.5 192 1069.88 192C1071.94 192.004 1073.92 191.209 1075.41 189.784L1084.83 180.773C1086.29 179.387 1086.95 177.363 1086.6 175.384 1086.58 175.318 1086.57 175.252 1086.55 175.188L1083 162.721 1083 151.755 1093.22 164.683C1094.36 166.15 1096.11 167.006 1097.96 167L1101.5 167C1104.54 167 1107 164.538 1107 161.5 1107 158.462 1104.54 156 1101.5 156ZM1053.77 153.273C1053.74 153.305 1053.71 153.337 1053.68 153.371 1052.99 154.132 1051.84 154.25 1051.02 153.644L1039.98 145.588C1039.4 145.167 1039.28 144.358 1039.7 143.783 1040.12 143.207 1040.93 143.081 1041.5 143.503L1049.82 149.612C1050.66 150.227 1051.83 150.098 1052.51 149.317L1055.81 145.547 1058.98 148.26ZM1065 124.12 1067.78 121.066 1066.91 124.845 1076 120.066 1077.77 122.794C1078.4 123.759 1078.8 124.851 1078.95 125.991 1078.5 129.829 1075.02 132.572 1071.18 132.118 1067.66 131.701 1065 128.714 1065.01 125.167ZM1072 136.167C1072.68 136.164 1073.35 136.1 1074 135.975L1074 137.18C1074.01 138.609 1075.02 139.839 1076.42 140.122L1076.49 140.137 1076.43 140.218C1074.56 142.662 1071.06 143.127 1068.62 141.257 1068.23 140.958 1067.88 140.609 1067.58 140.218L1067.52 140.137 1067.59 140.122C1068.99 139.839 1070 138.609 1070 137.18L1070 135.975C1070.66 136.1 1071.33 136.164 1072 136.167ZM1073.55 175.482 1071.34 177.835 1072.68 172.504ZM1063.71 186.831 1059.48 194.828C1059.11 195.534 1058.61 196.165 1058 196.69L1058 191.691C1058 191.336 1058.07 190.984 1058.19 190.652L1059.99 187.126 1060.33 186.434C1061.67 183.9 1062.73 181.231 1063.5 178.474 1063.53 178.357 1063.56 178.237 1063.57 178.116L1064.82 166.791 1069.28 169.63 1067.1 178.319C1066.43 181.318 1065.29 184.191 1063.71 186.831ZM1082.07 177.882 1072.64 186.892C1071.9 187.605 1070.91 188.002 1069.88 188L1067.67 188 1068.1 187.163 1077.25 177.383C1077.73 176.867 1077.9 176.137 1077.71 175.459L1076.01 169.621C1076.13 169.542 1076.25 169.475 1076.37 169.386L1079.95 166.599 1082.67 176.169C1082.76 176.803 1082.53 177.44 1082.07 177.882ZM1101.5 163 1097.96 163C1097.34 163.001 1096.75 162.711 1096.37 162.215L1085.49 148.447 1088.55 146.533 1098.43 159.228C1098.81 159.715 1099.39 160 1100 160L1101.5 160C1102.33 160 1103 160.672 1103 161.5 1103 162.328 1102.33 163 1101.5 163Z" stroke="#FFFFFF" fill="#FFFFFF"/></g></svg>