<svg width="96" height="96" xmlns="http://www.w3.org/2000/svg" xmlns:xlink="http://www.w3.org/1999/xlink" xml:space="preserve" overflow="hidden"><g transform="translate(-873 -602)"><path d="M926.6 655.3C930 658 933.2 662.7 935.6 668L906.4 668C908.9 662.7 912 657.9 915.4 655.3 917 654 918 652.1 918 650 918 647.9 917 646 915.4 644.7 908.6 639.4 902.7 625.8 901.7 616L940.4 616C939.3 625.8 933.5 639.4 926.7 644.7 925 646 924 647.9 924 650 924 652.1 925 654 926.6 655.3ZM946.3 616 949 616 949 610 893 610 893 616 895.6 616C896.7 627.1 903.1 643.3 912.4 650 903.1 656.7 896.6 672.9 895.6 684L893 684 893 690 949 690 949 684 946.3 684C945.3 672.9 938.8 656.7 929.5 650 938.8 643.3 945.3 627.1 946.3 616Z" stroke="#FFFFFF" fill="#FFFFFF"/></g></svg>