<svg width="96" height="96" xmlns="http://www.w3.org/2000/svg" xmlns:xlink="http://www.w3.org/1999/xlink" xml:space="preserve" overflow="hidden"><g transform="translate(-468 -13)"><path d="M521.6 66.3C525 69 528.2 73.7 530.6 79L501.4 79C503.9 73.7 507 68.9 510.4 66.3 512 65 513 63.1 513 61 513 58.9 512 57 510.4 55.7 503.6 50.4 497.7 36.8 496.7 27L535.4 27C534.3 36.8 528.5 50.4 521.7 55.7 520 57 519 58.9 519 61 519 63.1 520 65 521.6 66.3ZM541.3 27 544 27 544 21 488 21 488 27 490.6 27C491.7 38.1 498.1 54.3 507.4 61 498.1 67.7 491.6 83.9 490.6 95L488 95 488 101 544 101 544 95 541.3 95C540.3 83.9 533.8 67.7 524.5 61 533.8 54.3 540.3 38.1 541.3 27Z"/></g></svg>