<svg width="96" height="96" xmlns="http://www.w3.org/2000/svg" xmlns:xlink="http://www.w3.org/1999/xlink" xml:space="preserve" overflow="hidden"><g transform="translate(-755 0)"><path d="M799 65 807 65 807 73 799 73Z"/><path d="M824.9 62.2 815.6 41C812.1 33 812.5 23.9 816.7 16.2L820.8 8.8C821.2 8.1 820.9 7.1 820.2 6.7 819.8 6.5 819.3 6.4 818.8 6.7L815.3 8.4C801.4 15.1 791 27.4 786.7 42.2L781 61.4 781 61.4C768.9 64.1 759.2 69.5 759.2 74.6 759.2 78.2 763.7 81.6 770.5 84.1 771.5 84.5 772.6 84.4 773.5 84L777.9 82 777.1 85C777 85.5 777.3 86.1 777.8 86.2 777.8 86.2 777.8 86.2 777.8 86.2 786 88 794.4 88.6 802.8 88 827.7 86 846.6 80.2 846.6 73.6 846.8 66.2 837.6 63.7 824.9 62.2ZM811 72.6 811 74C811 75.7 809.7 77 808 77L798 77C796.3 77 795 75.7 795 74L795 72.6C789.6 72.3 784.7 71.3 779.2 69.8L781 62C786 63.4 790.2 64.3 795 64.6L795 64C795 62.3 796.3 61 798 61L808 61C809.7 61 811 62.3 811 64L811 64.6C815.7 64.3 820.3 63.7 824.9 62.8L826.8 70.6C821.6 71.6 816.3 72.3 811 72.6Z"/></g></svg>