<svg width="96" height="96" xmlns="http://www.w3.org/2000/svg" xmlns:xlink="http://www.w3.org/1999/xlink" xml:space="preserve" overflow="hidden"><g transform="translate(-1170 -605)"><path d="M1214 670 1222 670 1222 678 1214 678Z" stroke="#FFFFFF" fill="#FFFFFF"/><path d="M1239.9 667.2 1230.6 646C1227.1 638 1227.5 628.9 1231.7 621.2L1235.8 613.8C1236.2 613.1 1235.9 612.1 1235.2 611.7 1234.8 611.5 1234.3 611.4 1233.8 611.7L1230.3 613.4C1216.4 620.1 1206 632.4 1201.7 647.2L1196 666.4 1196 666.4C1183.9 669.1 1174.2 674.5 1174.2 679.6 1174.2 683.2 1178.7 686.6 1185.5 689.1 1186.5 689.5 1187.6 689.4 1188.5 689L1192.9 687 1192.1 690C1192 690.5 1192.3 691.1 1192.8 691.2 1192.8 691.2 1192.8 691.2 1192.8 691.2 1201 693 1209.4 693.6 1217.8 693 1242.7 691 1261.6 685.2 1261.6 678.6 1261.8 671.2 1252.6 668.7 1239.9 667.2ZM1226 677.6 1226 679C1226 680.7 1224.7 682 1223 682L1213 682C1211.3 682 1210 680.7 1210 679L1210 677.6C1204.6 677.3 1199.7 676.3 1194.2 674.8L1196 667C1201 668.4 1205.2 669.3 1210 669.6L1210 669C1210 667.3 1211.3 666 1213 666L1223 666C1224.7 666 1226 667.3 1226 669L1226 669.6C1230.7 669.3 1235.3 668.7 1239.9 667.8L1241.8 675.6C1236.6 676.6 1231.3 677.3 1226 677.6Z" stroke="#FFFFFF" fill="#FFFFFF"/></g></svg>