<svg width="96" height="96" xmlns="http://www.w3.org/2000/svg" xmlns:xlink="http://www.w3.org/1999/xlink" xml:space="preserve" overflow="hidden"><g transform="translate(-604 -89)"><path d="M680.7 103 623.5 103C615.6 103 609.2 109.4 609.2 117.3L609.2 156.8C609.2 164.7 615.6 171.1 623.5 171.1L680.7 171.1C688.6 171 695 164.6 695 156.7L695 117.3C695 109.4 688.6 103 680.7 103ZM689 117.3 689 133.3 646.6 133.3 646.6 109 680.7 109C685.3 109 689 112.7 689 117.3ZM615.3 156.7 615.3 117.3C615.3 112.7 619 109 623.6 109L642.7 109 642.7 165 623.5 165C619 165 615.3 161.3 615.3 156.7ZM680.7 165 646.6 165 646.6 137.2 689 137.2 689 156.7C689 161.3 685.3 165 680.7 165Z"/><path d="M654.6 140C653 140.2 651.8 141.7 652 143.3 652 143.3 652 143.3 652 143.3 653.1 152.5 651.8 158.2 651.8 158.3 651.4 159.9 652.4 161.5 654.1 161.9 655.7 162.3 657.3 161.3 657.7 159.7 657.8 159.4 659.3 153 658.1 142.6 657.7 141 656.3 139.8 654.6 140Z"/><path d="M667 140C665.4 140.2 664.2 141.7 664.4 143.3 664.4 143.3 664.4 143.3 664.4 143.3 665.5 152.5 664.2 158.2 664.2 158.3 663.8 159.9 664.8 161.5 666.5 161.9 668.1 162.3 669.7 161.3 670.1 159.7 670.2 159.4 671.7 153 670.5 142.6 670.1 141 668.7 139.8 667 140Z"/><path d="M679.4 140C677.8 140.2 676.6 141.7 676.8 143.3 676.8 143.3 676.8 143.3 676.8 143.3 677.9 152.5 676.6 158.2 676.6 158.3 676.2 159.9 677.2 161.5 678.9 161.9 680.5 162.3 682.1 161.3 682.5 159.7 682.6 159.4 684.1 153 682.9 142.6 682.5 141 681.1 139.8 679.4 140Z"/><path d="M629.6 112C614.5 126.2 621.2 141.7 626.1 149.2 621.4 155 620.5 163 620.5 163L620.5 163 629.6 156.5 638.7 163 638.7 163C638.7 163 637.8 155 633.1 149.2 638 141.7 644.7 126.2 629.6 112ZM622.7 127.6C622.5 127.1 622.7 126.5 623.2 126.3 623.2 126.3 623.2 126.3 623.2 126.3L632.9 121.9C633.4 121.7 634 121.9 634.2 122.4 634.4 122.9 634.2 123.5 633.7 123.7L624 128.1C623.5 128.3 622.9 128.1 622.7 127.6L622.7 127.6ZM623.7 134.9C623.5 134.4 623.7 133.8 624.2 133.6 624.2 133.6 624.2 133.6 624.2 133.6L633.9 129.2C634.4 129 635 129.2 635.2 129.7 635.4 130.2 635.2 130.8 634.7 131L625 135.4C624.5 135.6 623.9 135.4 623.7 134.9L623.7 134.9ZM625.6 142.8C625 142.8 624.6 142.4 624.6 141.8 624.6 141.4 624.8 141.1 625.2 140.9L634.9 136.5C635.4 136.3 636 136.5 636.2 137 636.4 137.5 636.2 138.1 635.7 138.3 635.7 138.3 635.7 138.3 635.7 138.3L626 142.7C625.9 142.7 625.7 142.8 625.6 142.8Z"/><path d="M652 130.7 653.7 129C650.3 125.7 650.3 120.3 653.6 116.9 656.9 113.5 662.3 113.5 665.7 116.8 665.7 116.8 665.8 116.9 665.8 116.9L667.5 115.2C663.2 110.9 656.2 111 651.9 115.3 647.7 119.5 647.7 126.4 652 130.7Z"/><path d="M655.1 118.3C652.5 120.9 652.6 125 655.1 127.6 655.1 127.6 655.1 127.6 655.1 127.6L664.4 118.3C661.8 115.7 657.7 115.7 655.1 118.3 655.1 118.2 655.1 118.3 655.1 118.3Z"/><path d="M672.7 128.9C669.3 125.6 669.3 120.2 672.6 116.8 675.9 113.4 681.3 113.4 684.7 116.7 684.7 116.7 684.8 116.8 684.8 116.8L686.5 115.1C682.2 110.8 675.2 110.9 670.9 115.2 666.7 119.5 666.7 126.4 670.9 130.7L672.7 128.9Z"/><path d="M674.1 118.3C671.5 120.9 671.6 125 674.1 127.6 674.1 127.6 674.1 127.6 674.1 127.6L683.4 118.3C680.8 115.7 676.7 115.7 674.1 118.3 674.1 118.2 674.1 118.3 674.1 118.3Z"/></g></svg>