<svg width="96" height="96" xmlns="http://www.w3.org/2000/svg" xmlns:xlink="http://www.w3.org/1999/xlink" xml:space="preserve" overflow="hidden"><g transform="translate(-766 -98)"><path d="M842.7 112 785.5 112C777.6 112 771.2 118.4 771.2 126.3L771.2 165.8C771.2 173.7 777.6 180.1 785.5 180.1L842.7 180.1C850.6 180 857 173.6 857 165.7L857 126.3C857 118.4 850.6 112 842.7 112ZM851 126.3 851 142.3 808.6 142.3 808.6 118 842.7 118C847.3 118 851 121.7 851 126.3ZM777.3 165.7 777.3 126.3C777.3 121.7 781 118 785.6 118L804.7 118 804.7 174 785.5 174C781 174 777.3 170.3 777.3 165.7ZM842.7 174 808.6 174 808.6 146.2 851 146.2 851 165.7C851 170.3 847.3 174 842.7 174Z" stroke="#FFFFFF" fill="#FFFFFF"/><path d="M816.6 149C815 149.2 813.8 150.7 814 152.3 814 152.3 814 152.3 814 152.3 815.1 161.5 813.8 167.2 813.8 167.3 813.4 168.9 814.4 170.5 816.1 170.9 817.7 171.3 819.3 170.3 819.7 168.7 819.8 168.4 821.3 162 820.1 151.6 819.7 150 818.3 148.8 816.6 149Z" stroke="#FFFFFF" fill="#FFFFFF"/><path d="M829 149C827.4 149.2 826.2 150.7 826.4 152.3 826.4 152.3 826.4 152.3 826.4 152.3 827.5 161.5 826.2 167.2 826.2 167.3 825.8 168.9 826.8 170.5 828.5 170.9 830.1 171.3 831.7 170.3 832.1 168.7 832.2 168.4 833.7 162 832.5 151.6 832.1 150 830.7 148.8 829 149Z" stroke="#FFFFFF" fill="#FFFFFF"/><path d="M841.4 149C839.8 149.2 838.6 150.7 838.8 152.3 838.8 152.3 838.8 152.3 838.8 152.3 839.9 161.5 838.6 167.2 838.6 167.3 838.2 168.9 839.2 170.5 840.9 170.9 842.5 171.3 844.1 170.3 844.5 168.7 844.6 168.4 846.1 162 844.9 151.6 844.5 150 843.1 148.8 841.4 149Z" stroke="#FFFFFF" fill="#FFFFFF"/><path d="M791.6 121C776.5 135.2 783.2 150.7 788.1 158.2 783.4 164 782.5 172 782.5 172L782.5 172 791.6 165.5 800.7 172 800.7 172C800.7 172 799.8 164 795.1 158.2 800 150.7 806.7 135.2 791.6 121ZM784.7 136.6C784.5 136.1 784.7 135.5 785.2 135.3 785.2 135.3 785.2 135.3 785.2 135.3L794.9 130.9C795.4 130.7 796 130.9 796.2 131.4 796.4 131.9 796.2 132.5 795.7 132.7L786 137.1C785.5 137.3 784.9 137.1 784.7 136.6L784.7 136.6ZM785.7 143.9C785.5 143.4 785.7 142.8 786.2 142.6 786.2 142.6 786.2 142.6 786.2 142.6L795.9 138.2C796.4 138 797 138.2 797.2 138.7 797.4 139.2 797.2 139.8 796.7 140L787 144.4C786.5 144.6 785.9 144.4 785.7 143.9L785.7 143.9ZM787.6 151.8C787 151.8 786.6 151.4 786.6 150.8 786.6 150.4 786.8 150.1 787.2 149.9L796.9 145.5C797.4 145.3 798 145.5 798.2 146 798.4 146.5 798.2 147.1 797.7 147.3 797.7 147.3 797.7 147.3 797.7 147.3L788 151.7C787.9 151.7 787.7 151.8 787.6 151.8Z" stroke="#FFFFFF" fill="#FFFFFF"/><path d="M814 139.7 815.7 138C812.3 134.7 812.3 129.3 815.6 125.9 818.9 122.5 824.3 122.5 827.7 125.8 827.7 125.8 827.8 125.9 827.8 125.9L829.5 124.2C825.2 119.9 818.2 120 813.9 124.3 809.7 128.5 809.7 135.4 814 139.7Z" stroke="#FFFFFF" fill="#FFFFFF"/><path d="M817.1 127.3C814.5 129.9 814.6 134 817.1 136.6 817.1 136.6 817.1 136.6 817.1 136.6L826.4 127.3C823.8 124.7 819.7 124.7 817.1 127.3 817.1 127.2 817.1 127.3 817.1 127.3Z" stroke="#FFFFFF" fill="#FFFFFF"/><path d="M834.7 137.9C831.3 134.6 831.3 129.2 834.6 125.8 837.9 122.4 843.3 122.4 846.7 125.7 846.7 125.7 846.8 125.8 846.8 125.8L848.5 124.1C844.2 119.8 837.2 119.9 832.9 124.2 828.7 128.5 828.7 135.4 832.9 139.7L834.7 137.9Z" stroke="#FFFFFF" fill="#FFFFFF"/><path d="M836.1 127.3C833.5 129.9 833.6 134 836.1 136.6 836.1 136.6 836.1 136.6 836.1 136.6L845.4 127.3C842.8 124.7 838.7 124.7 836.1 127.3 836.1 127.2 836.1 127.3 836.1 127.3Z" stroke="#FFFFFF" fill="#FFFFFF"/></g></svg>