<svg width="96" height="96" xmlns="http://www.w3.org/2000/svg" xmlns:xlink="http://www.w3.org/1999/xlink" xml:space="preserve" overflow="hidden"><g transform="translate(-1035 -296)"><path d="M1082.99 317.626 1057.19 333.116 1083 348.662 1108.79 333.172 1082.99 317.626Z" stroke="#FFFFFF" fill="#FFFFFF"/><path d="M1069.67 365.996 1054.8 356.983 1054.8 368.064 1081.48 384.237 1081.48 355.269 1069.67 365.996Z" stroke="#FFFFFF" fill="#FFFFFF"/><path d="M1096.3 366 1084.5 355.276 1084.5 384.237 1111.18 368.064 1111.18 356.977ZM1093.97 374.093 1087.94 377.536 1087.94 371.507 1093.97 368.064Z" stroke="#FFFFFF" fill="#FFFFFF"/><path d="M1081.47 315.039 1069.31 303.99 1042.46 320.264 1054.51 331.23 1081.47 315.039Z" stroke="#FFFFFF" fill="#FFFFFF"/><path d="M1111.43 331.259 1123.51 320.264 1096.66 303.99 1084.5 315.034 1111.43 331.259Z" stroke="#FFFFFF" fill="#FFFFFF"/><path d="M1054.53 335.012 1042.46 345.997 1069.31 362.27 1081.46 351.237 1054.53 335.012Z" stroke="#FFFFFF" fill="#FFFFFF"/><path d="M1084.52 351.245 1096.66 362.27 1123.51 345.997 1111.49 335.053 1084.52 351.245Z" stroke="#FFFFFF" fill="#FFFFFF"/></g></svg>