<svg width="96" height="96" xmlns="http://www.w3.org/2000/svg" xmlns:xlink="http://www.w3.org/1999/xlink" xml:space="preserve" overflow="hidden"><g transform="translate(-707 -296)"><path d="M754.991 317.626 729.193 333.116 754.996 348.662 780.794 333.172 754.991 317.626Z" stroke="#BFBFBF" fill="#BFBFBF"/><path d="M741.668 365.996 726.797 356.983 726.797 368.064 753.479 384.237 753.479 355.269 741.668 365.996Z" stroke="#BFBFBF" fill="#BFBFBF"/><path d="M768.3 366 756.5 355.276 756.5 384.237 783.182 368.064 783.182 356.977ZM765.967 374.093 759.942 377.536 759.942 371.507 765.967 368.064Z" stroke="#BFBFBF" fill="#BFBFBF"/><path d="M753.473 315.039 741.309 303.99 714.459 320.264 726.507 331.23 753.473 315.039Z" stroke="#BFBFBF" fill="#BFBFBF"/><path d="M783.432 331.259 795.512 320.264 768.661 303.99 756.502 315.034 783.432 331.259Z" stroke="#BFBFBF" fill="#BFBFBF"/><path d="M726.527 335.012 714.459 345.997 741.309 362.27 753.456 351.237 726.527 335.012Z" stroke="#BFBFBF" fill="#BFBFBF"/><path d="M756.523 351.245 768.661 362.27 795.512 345.997 783.489 335.053 756.523 351.245Z" stroke="#BFBFBF" fill="#BFBFBF"/></g></svg>