<svg width="96" height="96" xmlns="http://www.w3.org/2000/svg" xmlns:xlink="http://www.w3.org/1999/xlink" xml:space="preserve" overflow="hidden"><g transform="translate(-1025 -200)"><path d="M1078.7 248C1078.7 251.314 1076.01 254 1072.7 254 1069.39 254 1066.7 251.314 1066.7 248 1066.7 244.686 1069.39 242 1072.7 242 1076.01 242 1078.7 244.686 1078.7 248Z" stroke="#FFFFFF" fill="#FFFFFF"/><path d="M1107.9 228C1106.2 225.1 1102.4 223.7 1097.2 223.7 1093.9 223.7 1090.1 224.3 1085.9 225.4 1083 214.9 1078.2 208 1072.7 208 1067.3 208 1062.4 214.8 1059.6 225.2 1055.6 224.2 1052 223.6 1048.8 223.6 1043.6 223.6 1039.8 225 1038.1 227.9 1035.3 232.7 1039 240.4 1046.7 248.2 1039.3 255.8 1035.9 263.2 1038.6 267.9 1040.3 270.8 1044.1 272.2 1049.3 272.2 1052.3 272.2 1055.8 271.7 1059.6 270.8 1062.5 281.2 1067.3 288 1072.7 288 1078.1 288 1083 281.2 1085.8 270.8 1089.8 271.8 1093.4 272.4 1096.6 272.4 1101.8 272.4 1105.6 271 1107.3 268.1 1110 263.4 1106.6 256 1099.2 248.4 1107.1 240.5 1110.7 232.8 1107.9 228ZM1097.2 227.7C1100.9 227.7 1103.6 228.6 1104.4 230 1105.9 232.6 1103.2 238.7 1096.4 245.5 1094 243.3 1091.3 241.1 1088.3 239 1088 235.6 1087.5 232.3 1086.8 229.2 1090.6 228.2 1094.2 227.7 1097.2 227.7ZM1079.3 258.4C1077.2 259.6 1075.1 260.7 1073 261.7 1070.9 260.7 1068.8 259.6 1066.7 258.4 1064.7 257.2 1062.7 256 1060.9 254.8 1060.7 252.6 1060.7 250.4 1060.7 248 1060.7 245.8 1060.8 243.7 1060.9 241.6 1062.9 240.2 1065 238.9 1067.3 237.6 1069.2 236.5 1071.1 235.5 1073 234.6 1074.9 235.5 1076.8 236.5 1078.7 237.6 1080.7 238.8 1082.7 240 1084.5 241.2 1084.7 243.4 1084.7 245.6 1084.7 248 1084.7 250.5 1084.6 252.9 1084.4 255.2 1082.8 256.3 1081.1 257.3 1079.3 258.4ZM1083.9 260.3C1083.6 262.2 1083.3 264.1 1083 265.8 1081.3 265.2 1079.5 264.6 1077.7 263.8 1078.9 263.2 1080.1 262.5 1081.3 261.8 1082.2 261.3 1083.1 260.8 1083.9 260.3ZM1068.3 263.8C1066.3 264.6 1064.4 265.3 1062.5 265.9 1062.1 264 1061.8 262 1061.5 259.9 1062.6 260.6 1063.6 261.2 1064.8 261.9 1065.9 262.5 1067.1 263.2 1068.3 263.8ZM1056.8 251.8C1055.2 250.6 1053.8 249.4 1052.5 248.2 1053.8 247 1055.3 245.8 1056.8 244.6 1056.8 245.7 1056.7 246.8 1056.7 248 1056.7 249.3 1056.7 250.6 1056.8 251.8ZM1061.4 236.5C1061.7 234.3 1062 232.2 1062.4 230.2 1064.3 230.8 1066.3 231.6 1068.3 232.4 1067.3 232.9 1066.2 233.5 1065.2 234.1 1064 234.9 1062.7 235.7 1061.4 236.5ZM1077.6 232.4C1079.4 231.6 1081.2 231 1083 230.4 1083.4 232.2 1083.7 234.1 1084 236.1 1082.9 235.4 1081.9 234.8 1080.7 234.1 1079.7 233.6 1078.7 233 1077.6 232.4ZM1088.6 244.2C1090.4 245.6 1092 246.9 1093.5 248.3 1092 249.6 1090.4 251 1088.6 252.3 1088.7 250.9 1088.7 249.5 1088.7 248.1 1088.7 246.7 1088.7 245.4 1088.6 244.2ZM1072.7 212C1075.7 212 1079.6 217.3 1082.1 226.5 1079.2 227.5 1076.1 228.7 1073 230.1 1069.7 228.6 1066.5 227.3 1063.4 226.3 1065.9 217.2 1069.7 212 1072.7 212ZM1041.5 230C1042.4 228.5 1045 227.7 1048.7 227.7 1051.6 227.7 1054.9 228.2 1058.5 229.1 1057.8 232.3 1057.3 235.8 1057 239.4 1054.2 241.4 1051.7 243.4 1049.5 245.5 1042.8 238.7 1040 232.6 1041.5 230ZM1049.3 268.3C1045.6 268.3 1042.9 267.4 1042.1 266 1040.6 263.4 1043.2 257.6 1049.6 251 1051.9 253 1054.4 255 1057.1 257 1057.4 260.5 1057.9 263.9 1058.6 267 1055.3 267.9 1052.1 268.3 1049.3 268.3ZM1072.7 284C1069.7 284 1065.9 278.8 1063.4 269.8 1066.5 268.8 1069.7 267.6 1073 266.1 1076.1 267.5 1079.1 268.7 1082 269.6 1079.5 278.8 1075.7 284 1072.7 284ZM1103.9 266C1103 267.5 1100.4 268.3 1096.7 268.3 1093.8 268.3 1090.4 267.8 1086.9 266.9 1087.5 263.9 1088 260.8 1088.3 257.4 1091.3 255.3 1094 253.2 1096.4 251 1102.8 257.6 1105.4 263.4 1103.9 266Z" stroke="#FFFFFF" fill="#FFFFFF"/></g></svg>