<svg width="96" height="96" xmlns="http://www.w3.org/2000/svg" xmlns:xlink="http://www.w3.org/1999/xlink" xml:space="preserve" overflow="hidden"><g transform="translate(-696 -200)"><path d="M749.7 248C749.7 251.314 747.014 254 743.7 254 740.386 254 737.7 251.314 737.7 248 737.7 244.686 740.386 242 743.7 242 747.014 242 749.7 244.686 749.7 248Z" stroke="#BFBFBF" fill="#BFBFBF"/><path d="M778.9 228C777.2 225.1 773.4 223.7 768.2 223.7 764.9 223.7 761.1 224.3 756.9 225.4 754 214.9 749.2 208 743.7 208 738.3 208 733.4 214.8 730.6 225.2 726.6 224.2 723 223.6 719.8 223.6 714.6 223.6 710.8 225 709.1 227.9 706.3 232.7 710 240.4 717.7 248.2 710.3 255.8 706.9 263.2 709.6 267.9 711.3 270.8 715.1 272.2 720.3 272.2 723.3 272.2 726.8 271.7 730.6 270.8 733.5 281.2 738.3 288 743.7 288 749.1 288 754 281.2 756.8 270.8 760.8 271.8 764.4 272.4 767.6 272.4 772.8 272.4 776.6 271 778.3 268.1 781 263.4 777.6 256 770.2 248.4 778.1 240.5 781.7 232.8 778.9 228ZM768.2 227.7C771.9 227.7 774.6 228.6 775.4 230 776.9 232.6 774.2 238.7 767.4 245.5 765 243.3 762.3 241.1 759.3 239 759 235.6 758.5 232.3 757.8 229.2 761.6 228.2 765.2 227.7 768.2 227.7ZM750.3 258.4C748.2 259.6 746.1 260.7 744 261.7 741.9 260.7 739.8 259.6 737.7 258.4 735.7 257.2 733.7 256 731.9 254.8 731.7 252.6 731.7 250.4 731.7 248 731.7 245.8 731.8 243.7 731.9 241.6 733.9 240.2 736 238.9 738.3 237.6 740.2 236.5 742.1 235.5 744 234.6 745.9 235.5 747.8 236.5 749.7 237.6 751.7 238.8 753.7 240 755.5 241.2 755.7 243.4 755.7 245.6 755.7 248 755.7 250.5 755.6 252.9 755.4 255.2 753.8 256.3 752.1 257.3 750.3 258.4ZM754.9 260.3C754.6 262.2 754.3 264.1 754 265.8 752.3 265.2 750.5 264.6 748.7 263.8 749.9 263.2 751.1 262.5 752.3 261.8 753.2 261.3 754.1 260.8 754.9 260.3ZM739.3 263.8C737.3 264.6 735.4 265.3 733.5 265.9 733.1 264 732.8 262 732.5 259.9 733.6 260.6 734.6 261.2 735.8 261.9 736.9 262.5 738.1 263.2 739.3 263.8ZM727.8 251.8C726.2 250.6 724.8 249.4 723.5 248.2 724.8 247 726.3 245.8 727.8 244.6 727.8 245.7 727.7 246.8 727.7 248 727.7 249.3 727.7 250.6 727.8 251.8ZM732.4 236.5C732.7 234.3 733 232.2 733.4 230.2 735.3 230.8 737.3 231.6 739.3 232.4 738.3 232.9 737.2 233.5 736.2 234.1 735 234.9 733.7 235.7 732.4 236.5ZM748.6 232.4C750.4 231.6 752.2 231 754 230.4 754.4 232.2 754.7 234.1 755 236.1 753.9 235.4 752.9 234.8 751.7 234.1 750.7 233.6 749.7 233 748.6 232.4ZM759.6 244.2C761.4 245.6 763 246.9 764.5 248.3 763 249.6 761.4 251 759.6 252.3 759.7 250.9 759.7 249.5 759.7 248.1 759.7 246.7 759.7 245.4 759.6 244.2ZM743.7 212C746.7 212 750.6 217.3 753.1 226.5 750.2 227.5 747.1 228.7 744 230.1 740.7 228.6 737.5 227.3 734.4 226.3 736.9 217.2 740.7 212 743.7 212ZM712.5 230C713.4 228.5 716 227.7 719.7 227.7 722.6 227.7 725.9 228.2 729.5 229.1 728.8 232.3 728.3 235.8 728 239.4 725.2 241.4 722.7 243.4 720.5 245.5 713.8 238.7 711 232.6 712.5 230ZM720.3 268.3C716.6 268.3 713.9 267.4 713.1 266 711.6 263.4 714.2 257.6 720.6 251 722.9 253 725.4 255 728.1 257 728.4 260.5 728.9 263.9 729.6 267 726.3 267.9 723.1 268.3 720.3 268.3ZM743.7 284C740.7 284 736.9 278.8 734.4 269.8 737.5 268.8 740.7 267.6 744 266.1 747.1 267.5 750.1 268.7 753 269.6 750.5 278.8 746.7 284 743.7 284ZM774.9 266C774 267.5 771.4 268.3 767.7 268.3 764.8 268.3 761.4 267.8 757.9 266.9 758.5 263.9 759 260.8 759.3 257.4 762.3 255.3 765 253.2 767.4 251 773.8 257.6 776.4 263.4 774.9 266Z" stroke="#BFBFBF" fill="#BFBFBF"/></g></svg>