<svg width="96" height="96" xmlns="http://www.w3.org/2000/svg" xmlns:xlink="http://www.w3.org/1999/xlink" xml:space="preserve" overflow="hidden"><g transform="translate(-611 0)"><path d="M616 42.054C616 52.385 620.5 62.113 627.664 69.5L626.23 70.934C623.868 73.2583 623.838 77.0571 626.162 79.419 628.486 81.7809 632.285 81.8114 634.647 79.4871 634.67 79.4643 634.693 79.4412 634.716 79.418L637.157 76.977C650.592 85.0804 667.408 85.0804 680.843 76.977L682.771 78.9C685.133 81.224 688.932 81.193 691.256 78.8309 693.553 76.4959 693.553 72.75 691.256 70.415L690.337 69.496C697.5 62.112 702 52.385 702 42.054L702 40.514C702.03 25.319 689.737 12.9765 674.542 12.9462 668.999 12.9352 663.581 14.5988 659 17.719 646.441 9.16573 629.326 12.4131 620.773 24.9721 617.652 29.5551 615.988 34.9742 616 40.519ZM675.439 18.439C676.025 17.853 676.974 17.8527 677.56 18.4383 677.561 18.4385 677.561 18.4388 677.561 18.439L679.561 20.439C680.147 21.025 680.147 21.975 679.561 22.561 678.975 23.147 678.025 23.147 677.439 22.561L675.439 20.561C674.853 19.9754 674.853 19.0257 675.438 18.4397 675.439 18.4395 675.439 18.4392 675.439 18.439ZM661.439 32.439C662.025 31.853 662.974 31.8527 663.56 32.4383 663.56 32.4385 663.561 32.4388 663.561 32.439L665.561 34.439C666.147 35.025 666.147 35.975 665.561 36.561 664.975 37.147 664.025 37.147 663.439 36.561L661.439 34.561C660.853 33.9754 660.853 33.0257 661.438 32.4397 661.438 32.4395 661.439 32.4392 661.439 32.439ZM659.561 44.439C660.147 45.025 660.147 45.975 659.561 46.561 658.975 47.147 658.025 47.147 657.439 46.561L655.439 44.561C654.853 43.975 654.853 43.025 655.439 42.439 656.025 41.853 656.975 41.853 657.561 42.439ZM653.439 23.439 655.439 21.439C656.025 20.853 656.975 20.853 657.561 21.439 658.147 22.025 658.147 22.975 657.561 23.561L655.561 25.561C654.975 26.147 654.025 26.147 653.439 25.561 652.853 24.975 652.853 24.025 653.439 23.439ZM631.439 19.439C632.025 18.853 632.974 18.8527 633.56 19.4383 633.56 19.4385 633.561 19.4388 633.561 19.439L635.561 21.439C636.147 22.025 636.147 22.975 635.561 23.561 634.975 24.147 634.025 24.147 633.439 23.561L631.439 21.561C630.853 20.9754 630.853 20.0257 631.438 19.4397 631.438 19.4395 631.439 19.4392 631.439 19.439ZM622.5 43C621.672 43.0004 621 42.3291 620.999 41.5007 620.999 41.1025 621.157 40.7205 621.439 40.439L623.439 38.439C624.025 37.853 624.975 37.853 625.561 38.439 626.147 39.025 626.147 39.975 625.561 40.561L623.561 42.561C623.28 42.8423 622.898 43.0002 622.5 43ZM629.561 60.561C628.975 61.147 628.026 61.1473 627.44 60.5617 627.44 60.5615 627.439 60.5612 627.439 60.561L625.439 58.561C624.853 57.975 624.853 57.025 625.439 56.439 626.025 55.853 626.975 55.853 627.561 56.439L629.561 58.439C630.147 59.0246 630.147 59.9743 629.562 60.5603 629.562 60.5605 629.561 60.5608 629.561 60.561ZM628 40.514C627.975 31.9409 634.905 24.971 643.478 24.9462 645.962 24.939 648.412 25.5281 650.621 26.664 648.825 29.7176 647.643 33.0929 647.142 36.6 646.641 40.2924 647.889 44.0073 650.517 46.649L636.177 60.989C631.052 55.545 628 48.615 628 42.054ZM646.561 60.561 644.561 62.561C643.975 63.147 643.025 63.147 642.439 62.561 641.853 61.975 641.853 61.025 642.439 60.439L644.439 58.439C645.025 57.853 645.975 57.853 646.561 58.439 647.147 59.025 647.147 59.975 646.561 60.561ZM645.561 72.561 643.561 74.561C642.975 75.147 642.025 75.147 641.439 74.561 640.853 73.975 640.853 73.025 641.439 72.439L643.439 70.439C644.025 69.853 644.975 69.853 645.561 70.439 646.147 71.025 646.147 71.975 645.561 72.561ZM665.561 78.561C664.975 79.147 664.026 79.1473 663.44 78.5617 663.44 78.5614 663.439 78.5612 663.439 78.561L661.439 76.561C660.853 75.975 660.853 75.025 661.439 74.439 662.025 73.853 662.975 73.853 663.561 74.439L665.561 76.439C666.147 77.0246 666.147 77.9743 665.562 78.5603 665.562 78.5606 665.561 78.5608 665.561 78.561ZM659 71.054C654.504 71.0517 650.065 70.0538 646 68.132L659 55.132 672 68.132C667.935 70.0538 663.496 71.0517 659 71.054ZM673.561 59.561C672.975 60.147 672.026 60.1473 671.44 59.5617 671.44 59.5615 671.439 59.5612 671.439 59.561L669.439 57.561C668.853 56.975 668.853 56.025 669.439 55.439 670.025 54.853 670.975 54.853 671.561 55.439L673.561 57.439C674.147 58.0246 674.147 58.9743 673.562 59.5603 673.562 59.5605 673.561 59.5608 673.561 59.561ZM684.561 70.561 682.561 72.561C681.975 73.147 681.025 73.147 680.439 72.561 679.853 71.975 679.853 71.025 680.439 70.439L682.439 68.439C683.025 67.853 683.975 67.853 684.561 68.439 685.147 69.025 685.147 69.975 684.561 70.561ZM690 42.054C690 48.615 686.949 55.543 681.824 60.985L667.485 46.644C670.111 44.0033 671.358 40.2905 670.858 36.6 670.357 33.094 669.175 29.7197 667.38 26.667 675.004 22.7469 684.362 25.7492 688.282 33.3729 689.418 35.5816 690.007 38.0305 690 40.514ZM696.561 53.561C695.975 54.147 695.026 54.1473 694.44 53.5617 694.439 53.5615 694.439 53.5612 694.439 53.561L692.439 51.561C691.853 50.975 691.853 50.025 692.439 49.439 693.025 48.853 693.975 48.853 694.561 49.439L696.561 51.439C697.147 52.0246 697.147 52.9743 696.562 53.5603 696.561 53.5605 696.561 53.5608 696.561 53.561ZM696.561 32.561 694.561 34.561C693.975 35.147 693.025 35.147 692.439 34.561 691.853 33.975 691.853 33.025 692.439 32.439L694.439 30.439C695.025 29.853 695.975 29.853 696.561 30.439 697.147 31.025 697.147 31.975 696.561 32.561Z"/></g></svg>