<svg width="96" height="96" xmlns="http://www.w3.org/2000/svg" xmlns:xlink="http://www.w3.org/1999/xlink" xml:space="preserve" overflow="hidden"><g transform="translate(-765 -14)"><path d="M770 56.054C770 66.385 774.5 76.113 781.664 83.5L780.23 84.934C777.868 87.2583 777.838 91.0571 780.162 93.419 782.486 95.7809 786.285 95.8114 788.647 93.4871 788.67 93.4643 788.693 93.4412 788.716 93.418L791.157 90.977C804.592 99.0804 821.408 99.0804 834.843 90.977L836.771 92.9C839.133 95.224 842.932 95.193 845.256 92.8309 847.553 90.4959 847.553 86.75 845.256 84.415L844.337 83.496C851.5 76.112 856 66.385 856 56.054L856 54.514C856.03 39.319 843.737 26.9765 828.542 26.9462 822.999 26.9352 817.581 28.5988 813 31.719 800.441 23.1657 783.326 26.4131 774.773 38.9721 771.652 43.5551 769.988 48.9742 770 54.519ZM829.439 32.439C830.025 31.853 830.974 31.8527 831.56 32.4383 831.561 32.4385 831.561 32.4388 831.561 32.439L833.561 34.439C834.147 35.025 834.147 35.975 833.561 36.561 832.975 37.147 832.025 37.147 831.439 36.561L829.439 34.561C828.853 33.9754 828.853 33.0257 829.438 32.4397 829.439 32.4395 829.439 32.4392 829.439 32.439ZM815.439 46.439C816.025 45.853 816.974 45.8527 817.56 46.4383 817.56 46.4385 817.561 46.4388 817.561 46.439L819.561 48.439C820.147 49.025 820.147 49.975 819.561 50.561 818.975 51.147 818.025 51.147 817.439 50.561L815.439 48.561C814.853 47.9754 814.853 47.0257 815.438 46.4397 815.438 46.4395 815.439 46.4392 815.439 46.439ZM813.561 58.439C814.147 59.025 814.147 59.975 813.561 60.561 812.975 61.147 812.025 61.147 811.439 60.561L809.439 58.561C808.853 57.975 808.853 57.025 809.439 56.439 810.025 55.853 810.975 55.853 811.561 56.439ZM807.439 37.439 809.439 35.439C810.025 34.853 810.975 34.853 811.561 35.439 812.147 36.025 812.147 36.975 811.561 37.561L809.561 39.561C808.975 40.147 808.025 40.147 807.439 39.561 806.853 38.975 806.853 38.025 807.439 37.439ZM785.439 33.439C786.025 32.853 786.974 32.8527 787.56 33.4383 787.56 33.4385 787.561 33.4388 787.561 33.439L789.561 35.439C790.147 36.025 790.147 36.975 789.561 37.561 788.975 38.147 788.025 38.147 787.439 37.561L785.439 35.561C784.853 34.9754 784.853 34.0257 785.438 33.4397 785.438 33.4395 785.439 33.4392 785.439 33.439ZM776.5 57C775.672 57.0004 775 56.3291 774.999 55.5007 774.999 55.1025 775.157 54.7205 775.439 54.439L777.439 52.439C778.025 51.853 778.975 51.853 779.561 52.439 780.147 53.025 780.147 53.975 779.561 54.561L777.561 56.561C777.28 56.8423 776.898 57.0002 776.5 57ZM783.561 74.561C782.975 75.147 782.026 75.1473 781.44 74.5617 781.44 74.5615 781.439 74.5612 781.439 74.561L779.439 72.561C778.853 71.975 778.853 71.025 779.439 70.439 780.025 69.853 780.975 69.853 781.561 70.439L783.561 72.439C784.147 73.0246 784.147 73.9743 783.562 74.5603 783.562 74.5605 783.561 74.5608 783.561 74.561ZM782 54.514C781.975 45.9409 788.905 38.971 797.478 38.9462 799.962 38.939 802.412 39.5281 804.621 40.664 802.825 43.7176 801.643 47.0929 801.142 50.6 800.641 54.2924 801.889 58.0073 804.517 60.649L790.177 74.989C785.052 69.545 782 62.615 782 56.054ZM800.561 74.561 798.561 76.561C797.975 77.147 797.025 77.147 796.439 76.561 795.853 75.975 795.853 75.025 796.439 74.439L798.439 72.439C799.025 71.853 799.975 71.853 800.561 72.439 801.147 73.025 801.147 73.975 800.561 74.561ZM799.561 86.561 797.561 88.561C796.975 89.147 796.025 89.147 795.439 88.561 794.853 87.975 794.853 87.025 795.439 86.439L797.439 84.439C798.025 83.853 798.975 83.853 799.561 84.439 800.147 85.025 800.147 85.975 799.561 86.561ZM819.561 92.561C818.975 93.147 818.026 93.1473 817.44 92.5617 817.44 92.5614 817.439 92.5612 817.439 92.561L815.439 90.561C814.853 89.975 814.853 89.025 815.439 88.439 816.025 87.853 816.975 87.853 817.561 88.439L819.561 90.439C820.147 91.0246 820.147 91.9743 819.562 92.5603 819.562 92.5606 819.561 92.5608 819.561 92.561ZM813 85.054C808.504 85.0517 804.065 84.0538 800 82.132L813 69.132 826 82.132C821.935 84.0538 817.496 85.0517 813 85.054ZM827.561 73.561C826.975 74.147 826.026 74.1473 825.44 73.5617 825.44 73.5615 825.439 73.5612 825.439 73.561L823.439 71.561C822.853 70.975 822.853 70.025 823.439 69.439 824.025 68.853 824.975 68.853 825.561 69.439L827.561 71.439C828.147 72.0246 828.147 72.9743 827.562 73.5603 827.562 73.5605 827.561 73.5608 827.561 73.561ZM838.561 84.561 836.561 86.561C835.975 87.147 835.025 87.147 834.439 86.561 833.853 85.975 833.853 85.025 834.439 84.439L836.439 82.439C837.025 81.853 837.975 81.853 838.561 82.439 839.147 83.025 839.147 83.975 838.561 84.561ZM844 56.054C844 62.615 840.949 69.543 835.824 74.985L821.485 60.644C824.111 58.0033 825.358 54.2905 824.858 50.6 824.357 47.094 823.175 43.7197 821.38 40.667 829.004 36.7469 838.362 39.7492 842.282 47.3729 843.418 49.5816 844.007 52.0305 844 54.514ZM850.561 67.561C849.975 68.147 849.026 68.1473 848.44 67.5617 848.439 67.5615 848.439 67.5612 848.439 67.561L846.439 65.561C845.853 64.975 845.853 64.025 846.439 63.439 847.025 62.853 847.975 62.853 848.561 63.439L850.561 65.439C851.147 66.0246 851.147 66.9743 850.562 67.5603 850.561 67.5605 850.561 67.5608 850.561 67.561ZM850.561 46.561 848.561 48.561C847.975 49.147 847.025 49.147 846.439 48.561 845.853 47.975 845.853 47.025 846.439 46.439L848.439 44.439C849.025 43.853 849.975 43.853 850.561 44.439 851.147 45.025 851.147 45.975 850.561 46.561Z" stroke="#FFFFFF" fill="#FFFFFF"/></g></svg>