<svg width="96" height="96" xmlns="http://www.w3.org/2000/svg" xmlns:xlink="http://www.w3.org/1999/xlink" xml:space="preserve" overflow="hidden"><g transform="translate(-478 -192)"><path d="M508 205C500.8 205 495 210.8 495 218 495 225.2 500.8 231 508 231 515.2 231 521 225.2 521 218 521 210.8 515.2 205 508 205ZM509.4 227.3C509.4 226.9 509.7 226.5 510.2 226.5 510.6 226.5 511 226.8 511 227.3 511 227.7 510.7 228.1 510.2 228.1 510.2 228.1 510.2 228.1 510.2 228.1 509.7 228.1 509.4 227.8 509.4 227.3ZM515.6 224.3C514 224.3 512.4 224.5 510.9 224.8 508.7 225.2 506.5 225.5 504.3 225.5 502.4 225.4 500.6 225.2 498.7 224.8 498.3 224.2 497.9 223.6 497.6 223L498.5 223.2C500.4 223.7 502.3 223.9 504.3 224 506.4 224 508.5 223.8 510.6 223.4 512.2 223 513.9 222.9 515.6 222.9 516.5 222.9 517.5 223 518.4 223 518.2 223.5 517.9 224 517.6 224.5 516.9 224.3 516.2 224.3 515.6 224.3L515.6 224.3ZM507 208.3C507 208.7 506.7 209.1 506.2 209.1 505.8 209.1 505.4 208.8 505.4 208.3 505.4 207.9 505.7 207.5 506.2 207.5L506.2 207.5C506.6 207.5 507 207.8 507 208.3L507 208.3ZM507.6 210.3C510.5 210.3 513.3 210.2 516.1 209.9 516.4 210.2 516.7 210.6 517 210.9 513.9 211.2 510.7 211.4 507.5 211.4 506.7 211.4 502.6 211.4 498.8 211 499.1 210.6 499.4 210.3 499.7 209.9 502 210.2 504.6 210.3 507.6 210.3L507.6 210.3ZM515.4 213.3C515.4 213.7 515.1 214.1 514.6 214.1 514.2 214.1 513.8 213.8 513.8 213.3 513.8 212.9 514.1 212.5 514.6 212.5L514.6 212.5C515.1 212.5 515.4 212.9 515.4 213.3 515.4 213.3 515.4 213.3 515.4 213.3L515.4 213.3ZM499.3 216.3C501.6 216.3 503.8 216.1 506 215.7 507.8 215.4 509.6 215.2 511.3 215.2 514 215.3 516.6 215.6 519.2 216.2 519.3 216.7 519.3 217.3 519.4 217.8 516.7 217.2 514 216.8 511.3 216.8 509.6 216.8 507.9 217 506.2 217.3 503.9 217.7 501.6 218 499.2 218 498.3 218 497.3 217.9 496.4 217.8 496.4 217.3 496.5 216.8 496.6 216.3 497.6 216.2 498.4 216.3 499.3 216.3ZM506.4 220.7C506.4 221.6 505.7 222.3 504.8 222.3 503.9 222.3 503.2 221.6 503.2 220.7 503.2 219.8 503.9 219.1 504.8 219.1 504.8 219.1 504.8 219.1 504.8 219.1 505.7 219.1 506.4 219.8 506.4 220.7Z" stroke="#333333" fill="#333333"/><path d="M537.6 251.8 553.1 262.2 560 263.6C571.6 256.7 575.4 241.6 568.5 230 561.6 218.4 546.5 214.6 534.9 221.5 523.6 228.2 519.6 242.7 525.9 254.2L537.6 251.8ZM565.9 245.6C566.7 245.6 567.3 246.2 567.3 247 567.3 247.8 566.7 248.4 565.9 248.4 565.1 248.4 564.5 247.8 564.5 247 564.5 247 564.5 247 564.5 247 564.4 246.2 565.1 245.6 565.9 245.6ZM559.4 230.4C560.2 230.4 560.8 231 560.8 231.8 560.8 232.6 560.2 233.2 559.4 233.2 558.6 233.2 558 232.6 558 231.8 557.9 231.1 558.6 230.4 559.4 230.4ZM556.5 238.8C557.7 238.8 558.7 239.8 558.7 241 558.7 242.2 557.7 243.2 556.5 243.2 555.3 243.2 554.3 242.2 554.3 241 554.3 241 554.3 241 554.3 241 554.3 239.8 555.3 238.8 556.5 238.8ZM556.5 254.2C556.5 256.2 554.9 257.8 552.9 257.8 550.9 257.8 549.3 256.2 549.3 254.2 549.3 252.2 550.9 250.6 552.9 250.6L552.9 250.6C554.9 250.6 556.5 252.2 556.5 254.2ZM548.4 225.7C549.6 225.7 550.6 226.7 550.6 227.9 550.6 229.1 549.6 230.1 548.4 230.1 547.2 230.1 546.2 229.1 546.2 227.9 546.2 227.9 546.2 227.9 546.2 227.9 546.2 226.7 547.2 225.7 548.4 225.7ZM545 241.7C545.8 241.7 546.4 242.3 546.4 243.1 546.4 243.9 545.8 244.5 545 244.5 544.2 244.5 543.6 243.9 543.6 243.1 543.5 242.4 544.2 241.7 545 241.7ZM535.6 231.1C537.6 231.1 539.2 232.7 539.2 234.7 539.2 236.7 537.6 238.3 535.6 238.3 533.6 238.3 532 236.7 532 234.7 532 234.7 532 234.7 532 234.7 532 232.8 533.6 231.1 535.6 231.1ZM532 245.6C533.2 245.6 534.2 246.6 534.2 247.8 534.2 249 533.2 250 532 250 530.8 250 529.8 249 529.8 247.8 529.8 247.8 529.8 247.8 529.8 247.8 529.8 246.5 530.8 245.6 532 245.6L532 245.6Z" stroke="#333333" fill="#333333"/><path d="M487.5 209C488.3 206.1 490.3 203.8 493 202.5 490.3 201.2 488.3 198.9 487.5 196 486.7 198.9 484.7 201.2 482 202.5 484.7 203.8 486.7 206.1 487.5 209Z" stroke="#333333" fill="#333333"/><path d="M486.2 239C486.8 237 488.1 235.4 490 234.5 488.1 233.6 486.8 232 486.2 230 485.6 232 484.3 233.6 482.4 234.5 484.3 235.4 485.6 237 486.2 239Z" stroke="#333333" fill="#333333"/><path d="M538.1 213C538.9 210.4 540.7 208.2 543.2 207 540.7 205.8 538.9 203.6 538.1 201 537.3 203.6 535.5 205.8 533 207 535.5 208.2 537.3 210.4 538.1 213Z" stroke="#333333" fill="#333333"/><path d="M505.6 247C506.1 245.2 507.3 243.8 509 243 507.3 242.2 506.1 240.8 505.6 239 505.1 240.8 503.9 242.2 502.2 243 503.9 243.8 505.1 245.2 505.6 247Z" stroke="#333333" fill="#333333"/><path d="M568 271 562 267 552 265 537 255 522.7 257.9 526 261.8 532.7 265.7 531.3 268.3 524 264.2 519.1 258.2 505.5 252.3 498 257 491 257 485 261 480 263 480 281 572 281 572 272Z" stroke="#333333" fill="#333333"/></g></svg>