<svg width="96" height="96" xmlns="http://www.w3.org/2000/svg" xmlns:xlink="http://www.w3.org/1999/xlink" xml:space="preserve" overflow="hidden"><g transform="translate(-1135 -460)"><path d="M1165 473C1157.8 473 1152 478.8 1152 486 1152 493.2 1157.8 499 1165 499 1172.2 499 1178 493.2 1178 486 1178 478.8 1172.2 473 1165 473ZM1166.4 495.3C1166.4 494.9 1166.7 494.5 1167.2 494.5 1167.6 494.5 1168 494.8 1168 495.3 1168 495.7 1167.7 496.1 1167.2 496.1 1167.2 496.1 1167.2 496.1 1167.2 496.1 1166.7 496.1 1166.4 495.8 1166.4 495.3ZM1172.6 492.3C1171 492.3 1169.4 492.5 1167.9 492.8 1165.7 493.2 1163.5 493.5 1161.3 493.5 1159.4 493.4 1157.6 493.2 1155.7 492.8 1155.3 492.2 1154.9 491.6 1154.6 491L1155.5 491.2C1157.4 491.7 1159.3 491.9 1161.3 492 1163.4 492 1165.5 491.8 1167.6 491.4 1169.2 491 1170.9 490.9 1172.6 490.9 1173.5 490.9 1174.5 491 1175.4 491 1175.2 491.5 1174.9 492 1174.6 492.5 1173.9 492.3 1173.2 492.3 1172.6 492.3L1172.6 492.3ZM1164 476.3C1164 476.7 1163.7 477.1 1163.2 477.1 1162.8 477.1 1162.4 476.8 1162.4 476.3 1162.4 475.9 1162.7 475.5 1163.2 475.5L1163.2 475.5C1163.6 475.5 1164 475.8 1164 476.3L1164 476.3ZM1164.6 478.3C1167.5 478.3 1170.3 478.2 1173.1 477.9 1173.4 478.2 1173.7 478.6 1174 478.9 1170.9 479.2 1167.7 479.4 1164.5 479.4 1163.7 479.4 1159.6 479.4 1155.8 479 1156.1 478.6 1156.4 478.3 1156.7 477.9 1159 478.2 1161.6 478.3 1164.6 478.3L1164.6 478.3ZM1172.4 481.3C1172.4 481.7 1172.1 482.1 1171.6 482.1 1171.2 482.1 1170.8 481.8 1170.8 481.3 1170.8 480.9 1171.1 480.5 1171.6 480.5L1171.6 480.5C1172.1 480.5 1172.4 480.9 1172.4 481.3 1172.4 481.3 1172.4 481.3 1172.4 481.3L1172.4 481.3ZM1156.3 484.3C1158.6 484.3 1160.8 484.1 1163 483.7 1164.8 483.4 1166.6 483.2 1168.3 483.2 1171 483.3 1173.6 483.6 1176.2 484.2 1176.3 484.7 1176.3 485.3 1176.4 485.8 1173.7 485.2 1171 484.8 1168.3 484.8 1166.6 484.8 1164.9 485 1163.2 485.3 1160.9 485.7 1158.6 486 1156.2 486 1155.3 486 1154.3 485.9 1153.4 485.8 1153.4 485.3 1153.5 484.8 1153.6 484.3 1154.6 484.2 1155.4 484.3 1156.3 484.3ZM1163.4 488.7C1163.4 489.6 1162.7 490.3 1161.8 490.3 1160.9 490.3 1160.2 489.6 1160.2 488.7 1160.2 487.8 1160.9 487.1 1161.8 487.1 1161.8 487.1 1161.8 487.1 1161.8 487.1 1162.7 487.1 1163.4 487.8 1163.4 488.7Z" stroke="#FFFFFF" fill="#FFFFFF"/><path d="M1194.6 519.8 1210.1 530.2 1217 531.6C1228.6 524.7 1232.4 509.6 1225.5 498 1218.6 486.4 1203.5 482.6 1191.9 489.5 1180.6 496.2 1176.6 510.7 1182.9 522.2L1194.6 519.8ZM1222.9 513.6C1223.7 513.6 1224.3 514.2 1224.3 515 1224.3 515.8 1223.7 516.4 1222.9 516.4 1222.1 516.4 1221.5 515.8 1221.5 515 1221.5 515 1221.5 515 1221.5 515 1221.4 514.2 1222.1 513.6 1222.9 513.6ZM1216.4 498.4C1217.2 498.4 1217.8 499 1217.8 499.8 1217.8 500.6 1217.2 501.2 1216.4 501.2 1215.6 501.2 1215 500.6 1215 499.8 1214.9 499.1 1215.6 498.4 1216.4 498.4ZM1213.5 506.8C1214.7 506.8 1215.7 507.8 1215.7 509 1215.7 510.2 1214.7 511.2 1213.5 511.2 1212.3 511.2 1211.3 510.2 1211.3 509 1211.3 509 1211.3 509 1211.3 509 1211.3 507.8 1212.3 506.8 1213.5 506.8ZM1213.5 522.2C1213.5 524.2 1211.9 525.8 1209.9 525.8 1207.9 525.8 1206.3 524.2 1206.3 522.2 1206.3 520.2 1207.9 518.6 1209.9 518.6L1209.9 518.6C1211.9 518.6 1213.5 520.2 1213.5 522.2ZM1205.4 493.7C1206.6 493.7 1207.6 494.7 1207.6 495.9 1207.6 497.1 1206.6 498.1 1205.4 498.1 1204.2 498.1 1203.2 497.1 1203.2 495.9 1203.2 495.9 1203.2 495.9 1203.2 495.9 1203.2 494.7 1204.2 493.7 1205.4 493.7ZM1202 509.7C1202.8 509.7 1203.4 510.3 1203.4 511.1 1203.4 511.9 1202.8 512.5 1202 512.5 1201.2 512.5 1200.6 511.9 1200.6 511.1 1200.5 510.4 1201.2 509.7 1202 509.7ZM1192.6 499.1C1194.6 499.1 1196.2 500.7 1196.2 502.7 1196.2 504.7 1194.6 506.3 1192.6 506.3 1190.6 506.3 1189 504.7 1189 502.7 1189 502.7 1189 502.7 1189 502.7 1189 500.8 1190.6 499.1 1192.6 499.1ZM1189 513.6C1190.2 513.6 1191.2 514.6 1191.2 515.8 1191.2 517 1190.2 518 1189 518 1187.8 518 1186.8 517 1186.8 515.8 1186.8 515.8 1186.8 515.8 1186.8 515.8 1186.8 514.5 1187.8 513.6 1189 513.6L1189 513.6Z" stroke="#FFFFFF" fill="#FFFFFF"/><path d="M1144.5 477C1145.3 474.1 1147.3 471.8 1150 470.5 1147.3 469.2 1145.3 466.9 1144.5 464 1143.7 466.9 1141.7 469.2 1139 470.5 1141.7 471.8 1143.7 474.1 1144.5 477Z" stroke="#FFFFFF" fill="#FFFFFF"/><path d="M1143.2 507C1143.8 505 1145.1 503.4 1147 502.5 1145.1 501.6 1143.8 500 1143.2 498 1142.6 500 1141.3 501.6 1139.4 502.5 1141.3 503.4 1142.6 505 1143.2 507Z" stroke="#FFFFFF" fill="#FFFFFF"/><path d="M1195.1 481C1195.9 478.4 1197.7 476.2 1200.2 475 1197.7 473.8 1195.9 471.6 1195.1 469 1194.3 471.6 1192.5 473.8 1190 475 1192.5 476.2 1194.3 478.4 1195.1 481Z" stroke="#FFFFFF" fill="#FFFFFF"/><path d="M1162.6 515C1163.1 513.2 1164.3 511.8 1166 511 1164.3 510.2 1163.1 508.8 1162.6 507 1162.1 508.8 1160.9 510.2 1159.2 511 1160.9 511.8 1162.1 513.2 1162.6 515Z" stroke="#FFFFFF" fill="#FFFFFF"/><path d="M1225 539 1219 535 1209 533 1194 523 1179.7 525.9 1183 529.8 1189.7 533.7 1188.3 536.3 1181 532.2 1176.1 526.2 1162.5 520.3 1155 525 1148 525 1142 529 1137 531 1137 549 1229 549 1229 540Z" stroke="#FFFFFF" fill="#FFFFFF"/></g></svg>