<svg width="202" height="203" xmlns="http://www.w3.org/2000/svg" xmlns:xlink="http://www.w3.org/1999/xlink" xml:space="preserve" overflow="hidden"><g transform="translate(-2517 -1435)"><path d="M2517.5 1469C2517.5 1450.5 2532.5 1435.5 2551 1435.5L2685 1435.5C2703.5 1435.5 2718.5 1450.5 2718.5 1469L2718.5 1604C2718.5 1622.5 2703.5 1637.5 2685 1637.5L2551 1637.5C2532.5 1637.5 2517.5 1622.5 2517.5 1604Z" stroke="#2196F3" stroke-width="0.620735" stroke-miterlimit="8" fill="#2196F3" fill-rule="evenodd"/><g><g><g><path d="M89.6042 56.6042C95.3333 56.6042 99.9167 52.0208 99.9167 46.2917 99.9167 40.5625 95.3333 35.9792 89.6042 35.9792 83.875 35.9792 79.2917 40.5625 79.2917 46.2917 79.2917 46.8646 79.2917 47.3229 79.4063 47.8958L67.4896 52.8229C65.3125 49.0417 61.6458 46.4062 57.2917 45.7188L57.2917 33C62.7917 31.7396 66.3438 26.2396 65.0833 20.625 63.8229 15.125 58.3229 11.5729 52.7083 12.8333 47.0938 14.0938 43.6562 19.5938 44.9167 25.2083 45.8333 29.1042 48.8125 32.0833 52.7083 33L52.7083 45.8333C48.4688 46.5208 44.8021 49.0417 42.625 52.8229L31.0521 48.0104C31.9688 42.3958 28.0729 37.125 22.4583 36.2083 16.7292 35.2917 11.4583 39.0729 10.6563 44.6875 9.73958 50.3021 13.6354 55.5729 19.25 56.4896 23.1458 57.0625 27.0417 55.4583 29.3333 52.25L41.0208 57.0625C40.2188 61.0729 41.1354 65.1979 43.5417 68.5208L34.0313 78.1458C29.2188 75.1667 22.8021 76.6563 19.8229 81.4688 16.8438 86.2813 18.3333 92.6979 23.1458 95.6771 27.9583 98.6562 34.375 97.1667 37.3542 92.3542 39.4167 88.9167 39.4167 84.6771 37.2396 81.3542L46.75 71.8438C51.6771 75.2812 58.2083 75.2812 63.0208 71.8438L72.5312 81.3542C69.4375 86.1667 70.8125 92.4688 75.625 95.5625 80.4375 98.6562 86.7396 97.2813 89.8333 92.4688 92.9271 87.6562 91.5521 81.3542 86.7396 78.2604 83.4167 76.0833 79.0625 76.0833 75.625 78.1458L66.4583 68.5208C68.2917 66 69.3229 63.0208 69.3229 59.9271 69.3229 59.0104 69.2083 58.0938 69.0938 57.1771L81.125 52.25C83.0729 54.8854 86.1667 56.6042 89.6042 56.6042ZM87.1979 45.0312C87.1979 45.0312 89.8333 43.7708 89.8333 41.5938 89.8333 41.1354 90.1771 40.6771 90.6354 40.6771 91.0938 40.6771 91.5521 41.0208 91.5521 41.4792 91.5521 41.4792 91.5521 41.4792 91.5521 41.5938 91.5521 42.5104 91.4375 43.4271 91.0938 44.3438 91.0938 44.5729 91.3229 44.8021 91.5521 44.8021L94.3021 44.8021C94.7604 44.8021 95.2188 45.1458 95.2188 45.7188 95.2188 46.0625 94.9896 46.4062 94.6458 46.5208 94.9896 46.8646 94.9896 47.4375 94.6458 47.7813 94.5312 47.8958 94.4167 48.0104 94.1875 48.0104 94.3021 48.125 94.4167 48.3542 94.4167 48.5833 94.4167 49.0417 94.0729 49.5 93.5 49.5L93.3854 49.5C93.5 49.6146 93.6146 49.8438 93.6146 50.0729 93.6146 50.5312 93.2708 50.9896 92.6979 50.9896L90.0625 50.9896C88.1146 50.9896 88 49.8438 86.9688 49.8438L86.9688 45.0312ZM84.6771 44.3438 85.7083 44.3438C86.0521 44.3438 86.2813 44.5729 86.2813 44.9167L86.2813 49.8438C86.2813 50.1875 86.0521 50.4167 85.7083 50.4167L84.6771 50.4167 84.6771 44.3438ZM25.3229 47.2083 21.8854 47.2083 21.8854 50.6458 19.5938 50.6458 19.5938 47.2083 16.1563 47.2083 16.1563 44.9167 19.5938 44.9167 19.5938 41.4792 21.8854 41.4792 21.8854 44.9167 25.3229 44.9167 25.3229 47.2083ZM25.2083 90.0625C25.2083 90.4063 24.9792 90.6354 24.6354 90.6354L23.6042 90.6354 23.6042 84.5625 24.6354 84.5625C24.9792 84.5625 25.2083 84.7917 25.2083 85.1354L25.2083 90.0625ZM33.8021 87.3125C33.8021 87.7708 33.4583 88.1146 33.1146 88.1146 33.2292 88.2292 33.3438 88.4583 33.3438 88.6875 33.3438 89.1458 32.8854 89.6042 32.4271 89.6042 32.5417 89.7188 32.6562 89.9479 32.6562 90.1771 32.6562 90.6354 32.3125 91.0938 31.7396 91.0938L29.1042 91.0938C27.1563 91.0938 27.0417 89.9479 26.0104 89.9479L26.0104 85.25C26.0104 85.25 28.6458 83.9896 28.6458 81.8125 28.6458 81.3542 28.9896 80.8958 29.4479 80.8958 29.9063 80.8958 30.3646 81.2396 30.3646 81.6979 30.3646 81.6979 30.3646 81.6979 30.3646 81.8125 30.3646 82.7292 30.25 83.6458 29.9063 84.5625 29.9063 84.7917 30.1354 85.0208 30.3646 85.0208L33.2292 85.0208C33.6875 85.0208 34.1458 85.3646 34.1458 85.9375 34.1458 86.2813 33.9167 86.625 33.5729 86.7396 33.6875 86.8542 33.8021 87.0833 33.8021 87.3125ZM49.9583 21.1979C49.9583 19.1354 53.1667 16.8438 55.1146 20.625 57.0625 16.8438 60.2708 19.1354 60.2708 21.1979 60.2708 24.4062 55.1146 28.3021 55.1146 28.3021 55.1146 28.3021 49.9583 24.2917 49.9583 21.1979ZM50.9896 55.1146C50.9896 52.9375 52.8229 51.1042 55 51.1042 57.1771 51.1042 59.0104 52.9375 59.0104 55.1146 59.0104 57.2917 57.1771 59.125 55 59.125 52.8229 59.125 50.9896 57.4062 50.9896 55.1146L50.9896 55.1146ZM63.0208 67.2604 46.9792 67.2604 46.9792 64.1667C46.9792 63.5938 47.3229 62.9063 47.7813 62.5625 48.9271 61.7604 50.3021 61.0729 51.6771 60.6146 52.7083 60.2708 53.8542 60.1563 55 60.1563 56.1458 60.1563 57.2917 60.2708 58.3229 60.6146 59.6979 60.9583 61.0729 61.6458 62.2188 62.5625 62.6771 62.9063 63.0208 63.5938 63.0208 64.1667L63.0208 67.2604ZM81.4688 84.4479C83.4167 80.6667 86.625 82.9583 86.625 85.0208 86.625 88.2292 81.4688 92.125 81.4688 92.125 81.4688 92.125 76.3125 88.2292 76.3125 85.0208 76.3125 82.9583 79.5208 80.6667 81.4688 84.4479Z" stroke="#FFFFFF" stroke-width="0.620735" fill="#FFFFFF" transform="matrix(1.00909 0 0 1 2562 1481)"/></g></g></g></g></svg>