<svg width="96" height="96" xmlns="http://www.w3.org/2000/svg" xmlns:xlink="http://www.w3.org/1999/xlink" xml:space="preserve" overflow="hidden"><g transform="translate(-877 -505)"><path d="M955.2 554.4C960.2 554.4 964.2 550.4 964.2 545.4 964.2 540.4 960.2 536.4 955.2 536.4 950.2 536.4 946.2 540.4 946.2 545.4 946.2 545.9 946.2 546.3 946.3 546.8L935.9 551.1C934 547.8 930.8 545.5 927 544.9L927 533.8C931.8 532.7 934.9 527.9 933.8 523 932.7 518.2 927.9 515.1 923 516.2 918.1 517.3 915.1 522.1 916.2 527 917 530.4 919.6 533 923 533.8L923 545C919.3 545.6 916.1 547.8 914.2 551.1L904.1 546.9C904.9 542 901.5 537.4 896.6 536.6 891.6 535.8 887 539.1 886.3 544 885.5 548.9 888.9 553.5 893.8 554.3 897.2 554.8 900.6 553.4 902.6 550.6L912.8 554.8C912.1 558.3 912.9 561.9 915 564.8L906.7 573.2C902.5 570.6 896.9 571.9 894.3 576.1 891.7 580.3 893 585.9 897.2 588.5 901.4 591.1 907 589.8 909.6 585.6 911.4 582.6 911.4 578.9 909.5 576L917.8 567.7C922.1 570.7 927.8 570.7 932 567.7L940.3 576C937.6 580.2 938.8 585.7 943 588.4 947.2 591.1 952.7 589.9 955.4 585.7 958.1 581.5 956.9 576 952.7 573.3 949.8 571.4 946 571.4 943 573.2L935 564.8C936.6 562.6 937.5 560 937.5 557.3 937.5 556.5 937.4 555.7 937.3 554.9L947.8 550.6C949.5 552.9 952.2 554.4 955.2 554.4ZM953.1 544.3C953.1 544.3 955.4 543.2 955.4 541.3 955.4 540.9 955.7 540.5 956.1 540.5 956.5 540.5 956.9 540.8 956.9 541.2 956.9 541.2 956.9 541.2 956.9 541.3 956.9 542.1 956.8 542.9 956.5 543.7 956.5 543.9 956.7 544.1 956.9 544.1L959.3 544.1C959.7 544.1 960.1 544.4 960.1 544.9 960.1 545.2 959.9 545.5 959.6 545.6 959.9 545.9 959.9 546.4 959.6 546.7 959.5 546.8 959.4 546.9 959.2 546.9 959.3 547 959.4 547.2 959.4 547.4 959.4 547.8 959.1 548.2 958.6 548.2L958.5 548.2C958.6 548.3 958.7 548.5 958.7 548.7 958.7 549.1 958.4 549.5 957.9 549.5L955.6 549.5C953.9 549.5 953.8 548.5 952.9 548.5L952.9 544.3ZM950.9 543.7 951.8 543.7C952.1 543.7 952.3 543.9 952.3 544.2L952.3 548.5C952.3 548.8 952.1 549 951.8 549L950.9 549 950.9 543.7ZM899.1 546.2 896.1 546.2 896.1 549.2 894.1 549.2 894.1 546.2 891.1 546.2 891.1 544.2 894.1 544.2 894.1 541.2 896.1 541.2 896.1 544.2 899.1 544.2 899.1 546.2ZM899 583.6C899 583.9 898.8 584.1 898.5 584.1L897.6 584.1 897.6 578.8 898.5 578.8C898.8 578.8 899 579 899 579.3L899 583.6ZM906.5 581.2C906.5 581.6 906.2 581.9 905.9 581.9 906 582 906.1 582.2 906.1 582.4 906.1 582.8 905.7 583.2 905.3 583.2 905.4 583.3 905.5 583.5 905.5 583.7 905.5 584.1 905.2 584.5 904.7 584.5L902.4 584.5C900.7 584.5 900.6 583.5 899.7 583.5L899.7 579.4C899.7 579.4 902 578.3 902 576.4 902 576 902.3 575.6 902.7 575.6 903.1 575.6 903.5 575.9 903.5 576.3 903.5 576.3 903.5 576.3 903.5 576.4 903.5 577.2 903.4 578 903.1 578.8 903.1 579 903.3 579.2 903.5 579.2L906 579.2C906.4 579.2 906.8 579.5 906.8 580 906.8 580.3 906.6 580.6 906.3 580.7 906.4 580.8 906.5 581 906.5 581.2ZM920.6 523.5C920.6 521.7 923.4 519.7 925.1 523 926.8 519.7 929.6 521.7 929.6 523.5 929.6 526.3 925.1 529.7 925.1 529.7 925.1 529.7 920.6 526.2 920.6 523.5ZM921.5 553.1C921.5 551.2 923.1 549.6 925 549.6 926.9 549.6 928.5 551.2 928.5 553.1 928.5 555 926.9 556.6 925 556.6 923.1 556.6 921.5 555.1 921.5 553.1L921.5 553.1ZM932 563.7 918 563.7 918 561C918 560.5 918.3 559.9 918.7 559.6 919.7 558.9 920.9 558.3 922.1 557.9 923 557.6 924 557.5 925 557.5 926 557.5 927 557.6 927.9 557.9 929.1 558.2 930.3 558.8 931.3 559.6 931.7 559.9 932 560.5 932 561L932 563.7ZM948.1 578.7C949.8 575.4 952.6 577.4 952.6 579.2 952.6 582 948.1 585.4 948.1 585.4 948.1 585.4 943.6 582 943.6 579.2 943.6 577.4 946.4 575.4 948.1 578.7Z" stroke="#2196F3" stroke-width="0.541627" fill="#2196F3"/></g></svg>